<svg xmlns="http://www.w3.org/2000/svg" xmlns:xlink="http://www.w3.org/1999/xlink" width="200" height="200" viewBox="0 0 200 200" fill="none"><path d="M112.09 58.96C112.09 59.5994 112.106 60.2385 112.137 60.8772C112.168 61.5156 112.215 62.1531 112.278 62.7895C112.341 63.4258 112.419 64.0602 112.513 64.6928C112.607 65.3252 112.716 65.9551 112.841 66.5822C112.966 67.2094 113.106 67.833 113.261 68.4533C113.416 69.0735 113.587 69.6895 113.772 70.3014C113.958 70.9133 114.158 71.5203 114.374 72.1223C114.589 72.7244 114.819 73.3207 115.064 73.9115C115.309 74.5022 115.568 75.0865 115.841 75.6647C116.115 76.2426 116.402 76.8137 116.703 77.3776C117.005 77.9414 117.32 78.4975 117.649 79.0459C117.977 79.5944 118.319 80.1344 118.674 80.6662C119.03 81.1979 119.398 81.7205 119.779 82.234C120.16 82.7475 120.553 83.2514 120.958 83.7457C121.364 84.2401 121.782 84.724 122.211 85.1979C122.64 85.6715 123.081 86.1346 123.533 86.5867C123.985 87.0389 124.448 87.4795 124.922 87.909C125.396 88.3385 125.88 88.7559 126.374 89.1615C126.868 89.5672 127.372 89.9604 127.886 90.3414C128.4 90.7223 128.922 91.0903 129.454 91.4455C129.986 91.8008 130.526 92.1428 131.074 92.4715C131.622 92.8002 132.179 93.1152 132.743 93.4166C133.306 93.718 133.878 94.0055 134.455 94.2789C135.033 94.5522 135.618 94.8113 136.209 95.0561C136.799 95.3008 137.396 95.5307 137.998 95.7461C138.6 95.9615 139.207 96.1621 139.819 96.3477C140.43 96.5334 141.046 96.7039 141.667 96.8592C142.287 97.0145 142.911 97.1545 143.538 97.2793C144.165 97.4041 144.795 97.5133 145.427 97.6072C146.06 97.701 146.694 97.7791 147.33 97.8418C147.967 97.9045 148.604 97.9516 149.243 97.983C149.882 98.0145 150.521 98.0301 151.16 98.0301C151.799 98.0301 152.438 98.0145 153.077 97.983C153.716 97.9516 154.353 97.9045 154.989 97.8418C155.626 97.7791 156.26 97.701 156.893 97.6072C157.525 97.5133 158.155 97.4041 158.782 97.2793C159.409 97.1545 160.033 97.0145 160.653 96.8592C161.273 96.7039 161.889 96.5334 162.501 96.3477C163.113 96.1621 163.72 95.9615 164.322 95.7461C164.924 95.5307 165.521 95.3008 166.111 95.0561C166.702 94.8113 167.286 94.5522 167.865 94.2789C168.443 94.0055 169.014 93.718 169.578 93.4166C170.141 93.1152 170.697 92.8002 171.246 92.4715C171.794 92.1428 172.334 91.8008 172.866 91.4455C173.398 91.0903 173.92 90.7223 174.434 90.3414C174.947 89.9604 175.451 89.5672 175.946 89.1615C176.44 88.7559 176.924 88.3385 177.398 87.909C177.871 87.4795 178.335 87.0389 178.787 86.5867C179.239 86.1346 179.679 85.6715 180.109 85.1979C180.538 84.724 180.956 84.2401 181.361 83.7457C181.767 83.2514 182.16 82.7475 182.541 82.234C182.922 81.7205 183.29 81.1979 183.645 80.6662C184.001 80.1344 184.343 79.5944 184.671 79.0459C185 78.4975 185.315 77.9414 185.617 77.3776C185.918 76.8137 186.205 76.2426 186.479 75.6647C186.752 75.0865 187.011 74.5022 187.256 73.9115C187.501 73.3207 187.731 72.7244 187.946 72.1223C188.161 71.5203 188.362 70.9133 188.548 70.3014C188.733 69.6895 188.904 69.0735 189.059 68.4533C189.214 67.833 189.354 67.2094 189.479 66.5822C189.604 65.9551 189.713 65.3252 189.807 64.6928C189.901 64.0602 189.979 63.4258 190.042 62.7895C190.104 62.1531 190.152 61.5156 190.183 60.8772C190.214 60.2385 190.23 59.5994 190.23 58.96C190.23 58.3203 190.215 57.6813 190.184 57.0424C190.153 56.4035 190.106 55.7656 190.044 55.1291C189.981 54.4926 189.903 53.858 189.81 53.2252C189.716 52.5926 189.607 51.9625 189.483 51.3352C189.358 50.7078 189.218 50.0838 189.063 49.4633C188.908 48.8428 188.737 48.2266 188.552 47.6143C188.367 47.0022 188.166 46.3949 187.951 45.7926C187.736 45.1905 187.506 44.5938 187.261 44.0028C187.017 43.4117 186.758 42.8272 186.485 42.2489C186.211 41.6705 185.924 41.0992 185.623 40.535C185.321 39.9707 185.007 39.4143 184.678 38.8657C184.349 38.317 184.007 37.7766 183.652 37.2448C183.297 36.7129 182.929 36.1899 182.548 35.676C182.167 35.1622 181.774 34.658 181.368 34.1635C180.963 33.669 180.545 33.1847 180.116 32.7106C179.686 32.2366 179.245 31.7735 178.793 31.3211C178.341 30.8686 177.878 30.4276 177.404 29.9981C176.931 29.5684 176.446 29.1506 175.952 28.7448C175.458 28.3389 174.954 27.9454 174.44 27.5643C173.927 27.1832 173.404 26.8149 172.872 26.4594C172.34 26.1039 171.8 25.7617 171.252 25.4328C170.703 25.1039 170.147 24.7887 169.583 24.4871C169.019 24.1856 168.448 23.898 167.869 23.6244C167.291 23.3509 166.707 23.0917 166.116 22.8469C165.525 22.602 164.928 22.3718 164.326 22.1563C163.724 21.9407 163.117 21.74 162.505 21.5543C161.893 21.3686 161.277 21.1981 160.656 21.0426C160.036 20.8871 159.412 20.747 158.785 20.6221C158.157 20.4974 157.527 20.388 156.895 20.2942C156.262 20.2003 155.627 20.122 154.991 20.0592C154.354 19.9964 153.717 19.9494 153.078 19.918C152.439 19.8866 151.8 19.8709 151.16 19.8709C150.52 19.8709 149.881 19.8866 149.242 19.918C148.603 19.9494 147.966 19.9964 147.329 20.0592C146.693 20.122 146.058 20.2003 145.425 20.2942C144.793 20.388 144.163 20.4974 143.536 20.6221C142.908 20.747 142.284 20.8871 141.664 21.0426C141.043 21.1981 140.427 21.3686 139.815 21.5543C139.203 21.74 138.596 21.9407 137.994 22.1563C137.392 22.3718 136.795 22.602 136.204 22.8469C135.613 23.0917 135.029 23.3509 134.451 23.6244C133.872 23.898 133.301 24.1856 132.737 24.4871C132.173 24.7887 131.617 25.1039 131.068 25.4328C130.52 25.7617 129.98 26.1039 129.448 26.4594C128.916 26.8149 128.394 27.1832 127.88 27.5643C127.366 27.9454 126.862 28.3389 126.368 28.7448C125.873 29.1506 125.389 29.5684 124.916 29.9981C124.442 30.4276 123.979 30.8686 123.527 31.3211C123.074 31.7735 122.634 32.2366 122.204 32.7106C121.775 33.1847 121.357 33.669 120.952 34.1635C120.546 34.658 120.153 35.1622 119.772 35.676C119.391 36.1899 119.023 36.7129 118.668 37.2448C118.313 37.7766 117.971 38.317 117.642 38.8657C117.314 39.4143 116.998 39.9707 116.697 40.535C116.396 41.0992 116.109 41.6705 115.835 42.2489C115.562 42.8272 115.303 43.4117 115.059 44.0028C114.814 44.5938 114.584 45.1905 114.369 45.7926C114.154 46.3949 113.953 47.0022 113.768 47.6143C113.582 48.2266 113.412 48.8428 113.257 49.4633C113.102 50.0838 112.962 50.7078 112.837 51.3352C112.713 51.9625 112.604 52.5926 112.51 53.2252C112.417 53.858 112.339 54.4926 112.276 55.1291C112.214 55.7656 112.167 56.4035 112.136 57.0424C112.105 57.6813 112.09 58.3203 112.09 58.96Z"   fill="#FFDAE0" ></path><path     fill="#FFDAE0"  d="M180.56 137.94C180.56 138.017 180.558 138.095 180.554 138.172C180.55 138.25 180.544 138.327 180.536 138.404C180.528 138.481 180.519 138.558 180.507 138.635C180.496 138.712 180.483 138.788 180.467 138.864C180.452 138.94 180.435 139.016 180.416 139.091C180.397 139.166 180.376 139.241 180.354 139.315C180.331 139.389 180.307 139.463 180.28 139.536C180.254 139.608 180.226 139.681 180.196 139.752C180.167 139.824 180.135 139.895 180.102 139.965C180.069 140.035 180.034 140.104 179.997 140.172C179.961 140.241 179.922 140.308 179.883 140.375C179.843 140.441 179.801 140.507 179.758 140.571C179.715 140.636 179.67 140.699 179.624 140.761C179.578 140.823 179.53 140.884 179.481 140.944C179.432 141.004 179.381 141.063 179.329 141.12C179.277 141.178 179.224 141.234 179.169 141.289C179.114 141.343 179.058 141.397 179 141.449C178.943 141.501 178.884 141.552 178.824 141.601C178.764 141.65 178.703 141.698 178.641 141.744C178.579 141.79 178.515 141.835 178.451 141.878C178.386 141.921 178.321 141.963 178.255 142.003C178.188 142.042 178.121 142.081 178.052 142.117C177.984 142.154 177.915 142.189 177.845 142.222C177.775 142.255 177.704 142.287 177.632 142.317C177.561 142.346 177.488 142.374 177.415 142.4C177.342 142.427 177.269 142.451 177.195 142.474C177.121 142.496 177.046 142.517 176.971 142.536C176.896 142.555 176.82 142.572 176.744 142.587C176.668 142.603 176.592 142.616 176.515 142.627C176.438 142.639 176.361 142.648 176.284 142.656C176.207 142.664 176.13 142.67 176.052 142.674C175.975 142.678 175.898 142.68 175.82 142.68L147.35 142.68C147.272 142.68 147.195 142.682 147.117 142.687C147.04 142.691 146.963 142.697 146.885 142.705C146.808 142.713 146.731 142.722 146.654 142.734C146.578 142.746 146.501 142.759 146.425 142.775C146.349 142.79 146.274 142.807 146.199 142.826C146.123 142.845 146.049 142.866 145.974 142.889C145.9 142.912 145.827 142.936 145.754 142.963C145.681 142.989 145.609 143.017 145.537 143.047C145.465 143.077 145.394 143.109 145.324 143.142C145.254 143.175 145.185 143.21 145.117 143.247C145.048 143.284 144.981 143.322 144.914 143.362C144.848 143.402 144.783 143.444 144.718 143.487C144.654 143.53 144.59 143.575 144.528 143.621C144.466 143.668 144.405 143.715 144.345 143.765C144.285 143.814 144.226 143.865 144.169 143.917C144.111 143.969 144.055 144.023 144 144.078C143.946 144.132 143.892 144.189 143.84 144.246C143.788 144.304 143.738 144.363 143.688 144.423C143.639 144.483 143.592 144.544 143.545 144.606C143.499 144.669 143.455 144.732 143.411 144.797C143.368 144.861 143.327 144.927 143.287 144.993C143.247 145.06 143.209 145.127 143.172 145.196C143.136 145.264 143.101 145.333 143.067 145.403C143.034 145.473 143.003 145.544 142.973 145.616C142.943 145.688 142.916 145.76 142.889 145.833C142.863 145.906 142.839 145.98 142.816 146.054C142.794 146.128 142.773 146.203 142.754 146.278C142.735 146.353 142.718 146.429 142.703 146.505C142.687 146.581 142.674 146.658 142.662 146.734C142.651 146.811 142.642 146.888 142.634 146.965C142.626 147.043 142.62 147.12 142.616 147.197C142.612 147.275 142.61 147.352 142.61 147.43C142.61 147.507 142.612 147.585 142.616 147.663C142.619 147.74 142.625 147.817 142.633 147.895C142.64 147.972 142.65 148.049 142.661 148.126C142.673 148.202 142.686 148.279 142.701 148.355C142.716 148.431 142.733 148.506 142.752 148.582C142.771 148.657 142.792 148.732 142.814 148.806C142.837 148.88 142.861 148.954 142.887 149.027C142.913 149.1 142.941 149.172 142.971 149.244C143 149.315 143.032 149.386 143.065 149.457C143.098 149.527 143.133 149.596 143.17 149.664C143.206 149.733 143.244 149.8 143.284 149.867C143.324 149.933 143.366 149.999 143.409 150.064C143.452 150.128 143.497 150.191 143.543 150.254C143.589 150.316 143.637 150.377 143.686 150.437C143.735 150.497 143.786 150.556 143.838 150.613C143.89 150.671 143.943 150.727 143.998 150.782C144.053 150.836 144.109 150.89 144.167 150.942C144.224 150.994 144.283 151.045 144.343 151.094C144.403 151.143 144.464 151.191 144.526 151.237C144.589 151.283 144.652 151.328 144.717 151.371C144.781 151.414 144.847 151.456 144.913 151.496C144.98 151.536 145.047 151.574 145.116 151.61C145.184 151.647 145.253 151.682 145.323 151.715C145.393 151.748 145.464 151.78 145.536 151.809C145.608 151.839 145.68 151.867 145.753 151.893C145.826 151.919 145.9 151.943 145.974 151.966C146.048 151.988 146.123 152.009 146.198 152.028C146.274 152.047 146.349 152.064 146.425 152.079C146.501 152.094 146.578 152.107 146.654 152.119C146.731 152.13 146.808 152.139 146.885 152.147C146.963 152.155 147.04 152.16 147.117 152.164C147.195 152.168 147.272 152.17 147.35 152.17L156.84 152.17C156.918 152.17 156.995 152.172 157.073 152.176C157.15 152.18 157.228 152.186 157.305 152.194C157.382 152.202 157.459 152.211 157.536 152.223C157.613 152.234 157.689 152.248 157.765 152.263C157.841 152.278 157.917 152.295 157.992 152.314C158.068 152.333 158.142 152.354 158.217 152.377C158.291 152.4 158.364 152.424 158.437 152.45C158.51 152.477 158.583 152.505 158.655 152.534C158.726 152.564 158.797 152.596 158.867 152.629C158.938 152.662 159.007 152.697 159.075 152.734C159.143 152.771 159.211 152.809 159.277 152.849C159.344 152.889 159.41 152.931 159.474 152.974C159.539 153.017 159.602 153.062 159.664 153.108C159.727 153.155 159.788 153.202 159.848 153.252C159.908 153.301 159.966 153.352 160.024 153.404C160.081 153.456 160.137 153.51 160.192 153.565C160.247 153.62 160.301 153.676 160.353 153.734C160.405 153.791 160.455 153.85 160.504 153.91C160.554 153.97 160.601 154.031 160.648 154.094C160.694 154.156 160.739 154.22 160.782 154.284C160.825 154.349 160.866 154.414 160.906 154.481C160.946 154.547 160.984 154.615 161.02 154.684C161.057 154.752 161.092 154.821 161.125 154.892C161.158 154.962 161.19 155.033 161.219 155.105C161.249 155.176 161.277 155.249 161.303 155.322C161.329 155.395 161.353 155.469 161.376 155.543C161.399 155.617 161.419 155.692 161.438 155.767C161.457 155.843 161.474 155.918 161.489 155.995C161.504 156.071 161.517 156.147 161.529 156.224C161.54 156.301 161.55 156.378 161.557 156.455C161.565 156.532 161.57 156.61 161.574 156.687C161.578 156.765 161.58 156.842 161.58 156.92C161.58 156.997 161.578 157.075 161.574 157.152C161.57 157.23 161.564 157.307 161.556 157.384C161.549 157.461 161.539 157.538 161.527 157.615C161.516 157.692 161.502 157.768 161.487 157.844C161.472 157.92 161.455 157.996 161.436 158.071C161.417 158.146 161.396 158.221 161.374 158.295C161.351 158.369 161.327 158.443 161.3 158.516C161.274 158.589 161.246 158.661 161.217 158.732C161.187 158.804 161.155 158.875 161.122 158.945C161.089 159.015 161.054 159.084 161.017 159.153C160.981 159.221 160.942 159.288 160.902 159.355C160.863 159.421 160.821 159.487 160.778 159.551C160.735 159.615 160.69 159.679 160.644 159.741C160.598 159.803 160.55 159.864 160.501 159.924C160.452 159.984 160.401 160.043 160.349 160.1C160.297 160.158 160.244 160.214 160.189 160.269C160.134 160.323 160.078 160.377 160.02 160.429C159.963 160.481 159.904 160.532 159.844 160.581C159.784 160.63 159.723 160.678 159.661 160.724C159.599 160.77 159.535 160.815 159.471 160.858C159.407 160.901 159.341 160.943 159.275 160.983C159.208 161.022 159.141 161.061 159.072 161.097C159.004 161.134 158.935 161.169 158.865 161.202C158.795 161.235 158.724 161.267 158.652 161.297C158.581 161.326 158.508 161.354 158.435 161.38C158.363 161.407 158.289 161.431 158.215 161.454C158.141 161.476 158.066 161.497 157.991 161.516C157.916 161.535 157.84 161.552 157.764 161.567C157.688 161.582 157.612 161.596 157.535 161.607C157.458 161.619 157.381 161.629 157.304 161.636C157.227 161.644 157.15 161.65 157.072 161.654C156.995 161.658 156.917 161.66 156.84 161.66L144.24 161.66C143.444 162.348 142.634 163.019 141.809 163.673C140.985 164.327 140.148 164.964 139.298 165.583C138.447 166.203 137.584 166.804 136.708 167.388C135.833 167.971 134.946 168.536 134.046 169.083C133.147 169.629 132.237 170.157 131.316 170.666C130.395 171.174 129.464 171.664 128.523 172.134C127.582 172.604 126.631 173.054 125.671 173.485C124.711 173.915 123.742 174.326 122.765 174.716C121.788 175.106 120.803 175.476 119.811 175.825C118.818 176.174 117.819 176.503 116.813 176.811C115.807 177.119 114.795 177.406 113.776 177.671C112.759 177.937 111.735 178.181 110.707 178.405C109.679 178.628 108.646 178.829 107.61 179.01C106.573 179.19 105.533 179.348 104.49 179.486C103.447 179.622 102.401 179.738 101.353 179.831C100.305 179.925 99.2558 179.997 98.2048 180.047C97.1538 180.097 96.1023 180.125 95.0501 180.131C93.998 180.137 92.9462 180.121 91.8947 180.084C90.8433 180.046 89.7931 179.987 88.7439 179.906C87.6948 179.825 86.648 179.722 85.6032 179.597C84.5585 179.472 83.5167 179.326 82.478 179.158C81.4394 178.99 80.4048 178.8 79.3739 178.589C78.3431 178.379 77.3171 178.146 76.296 177.893C75.2749 177.639 74.2595 177.364 73.2497 177.068C72.2402 176.772 71.237 176.455 70.2404 176.118C69.2439 175.781 68.2548 175.422 67.2732 175.044C66.2915 174.665 65.3183 174.266 64.3531 173.847C63.388 173.428 62.4322 172.989 61.4853 172.53C60.5384 172.071 59.6015 171.592 58.6745 171.095C57.7478 170.597 56.8316 170.08 55.9261 169.544C55.0206 169.008 54.1267 168.454 53.2443 167.88C52.3618 167.307 51.4917 166.716 50.6339 166.107C49.7761 165.498 48.9314 164.871 48.0995 164.227C47.2679 163.582 46.4499 162.921 45.6456 162.242C44.8413 161.564 44.0515 160.869 43.2761 160.158C42.5007 159.447 41.7406 158.72 40.9952 157.977C40.2501 157.234 39.5208 156.476 38.8072 155.703C38.0935 154.93 37.3962 154.142 36.7152 153.34C36.0343 152.538 35.3704 151.722 34.7234 150.892C34.0765 150.063 33.447 149.22 32.8351 148.364C32.2232 147.508 31.6292 146.639 31.0533 145.759C30.4775 144.878 29.9202 143.986 29.3814 143.082C28.8426 142.179 28.3229 141.264 27.8223 140.339C27.3215 139.414 26.8402 138.478 26.3783 137.533C25.9165 136.587 25.4744 135.633 25.0521 134.669C24.63 133.705 24.2281 132.733 23.8463 131.753C23.4645 130.772 23.1033 129.784 22.7625 128.789C22.4219 127.793 22.102 126.791 21.8029 125.782C21.504 124.774 21.226 123.759 20.9691 122.739C20.7122 121.718 20.4767 120.693 20.2625 119.663C20.0482 118.633 19.8554 117.599 19.6842 116.561C19.5129 115.522 19.3633 114.481 19.2354 113.437C19.1074 112.393 19.0012 111.346 18.9167 110.297C18.8323 109.248 18.7696 108.198 18.7288 107.147C18.688 106.096 18.6691 105.044 18.672 103.992C18.6749 102.939 18.6997 101.888 18.7463 100.837C18.7929 99.7858 18.8614 98.736 18.9517 97.6877C19.0419 96.6393 19.154 95.5934 19.2877 94.5498C19.4215 93.5061 19.5768 92.4659 19.7539 91.4287C19.9309 90.3914 20.1293 89.3584 20.3492 88.3295C20.5691 87.3006 20.8104 86.2766 21.073 85.2578C21.3355 84.2389 21.6191 83.226 21.9236 82.219C22.2283 81.2118 22.5537 80.2114 22.8998 79.2178C23.246 78.2243 23.6127 77.2383 24 76.26L14.51 76.26C14.4346 76.2565 14.3593 76.2512 14.2842 76.2442C14.2091 76.2371 14.1341 76.2284 14.0594 76.2178C13.9847 76.2071 13.9103 76.1946 13.8362 76.1805C13.762 76.1664 13.6883 76.1504 13.6149 76.1328C13.5416 76.1151 13.4687 76.0957 13.3962 76.0746C13.3238 76.0534 13.2519 76.0305 13.1806 76.0059C13.1092 75.9813 13.0385 75.9549 12.9684 75.9272C12.8983 75.8991 12.8289 75.8696 12.7602 75.8383C12.6915 75.8071 12.6236 75.7741 12.5565 75.7397C12.4894 75.7051 12.4231 75.669 12.3577 75.6315C12.2923 75.5938 12.2278 75.5545 12.1643 75.5139C12.1008 75.4731 12.0383 75.4309 11.9767 75.3871C11.9152 75.3434 11.8548 75.2983 11.7954 75.2518C11.736 75.2051 11.6778 75.1571 11.6207 75.1078C11.5637 75.0584 11.5078 75.0077 11.4531 74.9557C11.3985 74.9037 11.3451 74.8504 11.2929 74.7959C11.2408 74.7412 11.19 74.6856 11.1405 74.6285C11.0911 74.5715 11.043 74.5133 10.9963 74.4541C10.9496 74.3948 10.9044 74.3344 10.8605 74.2731C10.8167 74.2116 10.7744 74.1491 10.7335 74.0856C10.6927 74.0221 10.6534 73.9576 10.6156 73.8924C10.5779 73.827 10.5417 73.7608 10.5071 73.6938C10.4724 73.6266 10.4394 73.5588 10.4081 73.4903C10.3767 73.4215 10.3469 73.3522 10.3189 73.2823C10.2908 73.2121 10.2644 73.1414 10.2397 73.0703C10.215 72.9989 10.192 72.927 10.1707 72.8547C10.1494 72.7823 10.1299 72.7094 10.112 72.6362C10.0942 72.5627 10.0782 72.4891 10.0639 72.4151C10.0496 72.3409 10.0371 72.2664 10.0263 72.1918C10.0156 72.117 10.0066 72.042 9.99941 71.967C9.99223 71.8918 9.98685 71.8166 9.98325 71.7412C9.97966 71.6659 9.97786 71.5905 9.97786 71.5151C9.97786 71.4395 9.97966 71.3641 9.98325 71.2887C9.98685 71.2133 9.99223 71.1379 9.99941 71.0629C10.0066 70.9877 10.0156 70.9129 10.0263 70.8383C10.0371 70.7635 10.0496 70.6891 10.0639 70.6151C10.0782 70.5409 10.0942 70.4672 10.112 70.394C10.1299 70.3205 10.1494 70.2477 10.1707 70.1754C10.192 70.1028 10.215 70.0309 10.2397 69.9598C10.2644 69.8883 10.2908 69.8176 10.3189 69.7477C10.3469 69.6776 10.3767 69.6082 10.4081 69.5397C10.4394 69.4709 10.4724 69.4032 10.5071 69.3362C10.5417 69.269 10.5779 69.2028 10.6156 69.1375C10.6534 69.0723 10.6927 69.0078 10.7335 68.9444C10.7744 68.8809 10.8167 68.8184 10.8605 68.7571C10.9044 68.6955 10.9496 68.6352 10.9963 68.576C11.043 68.5166 11.0911 68.4584 11.1406 68.4016C11.19 68.3446 11.2408 68.2887 11.2929 68.2342C11.3451 68.1795 11.3985 68.1262 11.4531 68.0742C11.5078 68.0223 11.5637 67.9715 11.6207 67.9223C11.6778 67.8727 11.736 67.8248 11.7954 67.7784C11.8548 67.7317 11.9152 67.6866 11.9767 67.6428C12.0383 67.5991 12.1008 67.5569 12.1643 67.5163C12.2278 67.4754 12.2923 67.4362 12.3577 67.3987C12.4231 67.361 12.4894 67.3248 12.5565 67.2905C12.6236 67.2559 12.6915 67.2231 12.7602 67.1918C12.8289 67.1604 12.8983 67.1307 12.9684 67.103C13.0385 67.0748 13.1092 67.0487 13.1806 67.0241C13.2519 66.9995 13.3238 66.9766 13.3962 66.9555C13.4687 66.9344 13.5416 66.9149 13.6149 66.8973C13.6883 66.8795 13.762 66.8635 13.8362 66.8494C13.9103 66.8352 13.9847 66.8229 14.0594 66.8123C14.1341 66.8016 14.2091 66.7928 14.2842 66.7858C14.3593 66.7787 14.4346 66.7735 14.51 66.77L33.5099 66.77C33.5806 66.77 33.6511 66.7686 33.7216 66.7655C33.7921 66.7623 33.8624 66.7575 33.9327 66.7512C34.0031 66.745 34.0732 66.7371 34.1431 66.7278C34.213 66.7184 34.2827 66.7075 34.3521 66.695C34.4216 66.6823 34.4908 66.6682 34.5595 66.6528C34.6283 66.6371 34.6968 66.62 34.7648 66.6012C34.8329 66.5825 34.9005 66.5623 34.9675 66.5409C35.0347 66.519 35.1015 66.4959 35.1675 66.4713C35.2337 66.4465 35.2991 66.4203 35.364 66.393C35.429 66.3653 35.4933 66.3364 35.557 66.3059C35.6206 66.2754 35.6837 66.2436 35.7458 66.2104C35.8081 66.177 35.8697 66.1424 35.9302 66.1065C35.9909 66.0703 36.0507 66.033 36.1097 65.9944C36.1687 65.9557 36.2269 65.9157 36.2841 65.8745C36.3415 65.833 36.3978 65.7907 36.4529 65.7469C36.5083 65.703 36.5626 65.6579 36.6159 65.6118C36.6693 65.5655 36.7216 65.5182 36.7728 65.4698C36.824 65.4211 36.8741 65.3715 36.923 65.3207C36.972 65.27 37.0199 65.218 37.0665 65.1651C37.1132 65.1121 37.1587 65.0582 37.2029 65.0034C37.2472 64.9483 37.2902 64.8922 37.332 64.8356C37.3738 64.7785 37.4144 64.7207 37.4534 64.6621C37.4925 64.6035 37.5304 64.544 37.5669 64.4836C37.6036 64.4231 37.6388 64.362 37.6724 64.3C37.7064 64.2381 37.7388 64.1754 37.7697 64.1121C37.8007 64.0487 37.8302 63.9846 37.8583 63.92C37.8865 63.8551 37.9132 63.7899 37.9384 63.7241C37.9636 63.658 37.9872 63.5916 38.0095 63.5246C38.0318 63.4577 38.0527 63.3903 38.0718 63.3225C38.0911 63.2545 38.1089 63.1862 38.1249 63.1176C38.1411 63.0489 38.1558 62.9797 38.1689 62.9106C38.1822 62.841 38.1937 62.7715 38.2034 62.7018C38.2136 62.6319 38.222 62.5619 38.2288 62.4916C38.2359 62.4213 38.2411 62.351 38.2447 62.2807C38.2486 62.21 38.2507 62.1395 38.2511 62.0692C38.2519 61.9985 38.2509 61.928 38.2482 61.8575C38.2456 61.7868 38.2415 61.7164 38.2359 61.6461C38.2302 61.5758 38.223 61.5057 38.214 61.4358C38.2052 61.3657 38.1949 61.2959 38.1827 61.2264C38.1708 61.1569 38.1574 61.0875 38.1421 61.0186C38.1273 60.9496 38.1107 60.8811 38.0925 60.8129C38.0743 60.7446 38.0546 60.6768 38.0335 60.6096C38.0124 60.5422 37.9898 60.4754 37.9656 60.4092C37.9415 60.3428 37.9159 60.2772 37.8888 60.2119C37.8618 60.1467 37.8333 60.0823 37.8033 60.0184C37.7734 59.9543 37.7421 59.8912 37.7093 59.8287C37.6765 59.7662 37.6423 59.7045 37.6068 59.6436C37.5712 59.5826 37.5345 59.5225 37.4962 59.4631C37.4579 59.4037 37.4185 59.3453 37.3777 59.2879C37.3368 59.2303 37.2947 59.1737 37.2513 59.118C37.2081 59.0623 37.1636 59.0077 37.1177 58.9539C37.072 58.9002 37.0249 58.8477 36.9767 58.7961C36.9286 58.7446 36.8794 58.694 36.829 58.6446C36.7786 58.5952 36.7273 58.5469 36.6745 58.4998C36.622 58.4528 36.5685 58.4069 36.5138 58.3621C36.4593 58.3174 36.4036 58.2741 36.347 58.2319C36.2906 58.1897 36.2331 58.1487 36.1747 58.109C36.1165 58.0694 36.0572 58.0311 35.997 57.994C35.937 57.9569 35.8761 57.9213 35.8144 57.8871C35.7527 57.8528 35.6904 57.82 35.6271 57.7885C35.5642 57.7569 35.5003 57.7268 35.4357 57.6983C35.3712 57.6696 35.3062 57.6424 35.2404 57.6166C35.1747 57.5909 35.1085 57.5664 35.0417 57.5438C34.9749 57.5211 34.9077 57.4998 34.84 57.4801L34.99 57.2901L24 57.2901C23.92 57.2936 23.8401 57.2953 23.7601 57.295C23.6801 57.2946 23.6001 57.292 23.5203 57.2877C23.4404 57.2834 23.3606 57.277 23.281 57.2686C23.2015 57.26 23.1222 57.2496 23.0432 57.2371C22.9641 57.2246 22.8855 57.2104 22.8072 57.194C22.7288 57.1774 22.651 57.159 22.5736 57.1387C22.4963 57.1184 22.4195 57.0961 22.3432 57.0719C22.267 57.0475 22.1914 57.0213 22.1164 56.9934C22.0415 56.9653 21.9674 56.9354 21.8939 56.9035C21.8205 56.8717 21.7479 56.8381 21.6762 56.8028C21.6045 56.7672 21.5338 56.7299 21.4639 56.6909C21.3941 56.6518 21.3252 56.611 21.2574 56.5686C21.1897 56.526 21.1231 56.4817 21.0576 56.436C20.992 56.3899 20.9276 56.3424 20.8644 56.2934C20.8013 56.2442 20.7394 56.1934 20.6789 56.1412C20.6184 56.0889 20.5592 56.0352 20.5014 55.9799C20.4434 55.9246 20.387 55.868 20.332 55.8098C20.2771 55.7516 20.2236 55.6922 20.1715 55.6315C20.1195 55.5705 20.0691 55.5084 20.0203 55.4452C19.9715 55.3819 19.9243 55.3172 19.8787 55.2516C19.8331 55.1858 19.7892 55.119 19.7469 55.051C19.7047 54.983 19.6642 54.9139 19.6256 54.844C19.5868 54.7739 19.5498 54.703 19.5147 54.6311C19.4796 54.5592 19.4463 54.4864 19.4148 54.4129C19.3834 54.3393 19.3538 54.2651 19.3261 54.1901C19.2984 54.1151 19.2726 54.0393 19.2487 53.9629C19.2248 53.8866 19.2029 53.8096 19.1829 53.7323C19.1629 53.6547 19.1449 53.5768 19.1288 53.4985C19.1127 53.42 19.0987 53.3412 19.0866 53.2621C19.0745 53.183 19.0644 53.1037 19.0564 53.0243C19.0483 52.9446 19.0422 52.8647 19.0382 52.785C19.0342 52.7049 19.0321 52.625 19.0321 52.545C19.0321 52.4649 19.0342 52.385 19.0382 52.3051C19.0422 52.2252 19.0483 52.1455 19.0564 52.0659C19.0644 51.9862 19.0745 51.9069 19.0866 51.8278C19.0987 51.7487 19.1127 51.67 19.1288 51.5916C19.1449 51.5131 19.1629 51.4352 19.1829 51.3578C19.2029 51.2803 19.2248 51.2034 19.2487 51.1272C19.2726 51.0506 19.2984 50.975 19.3261 50.9C19.3538 50.8248 19.3834 50.7504 19.4148 50.677C19.4463 50.6034 19.4796 50.5307 19.5147 50.4588C19.5498 50.3869 19.5868 50.3161 19.6256 50.2461C19.6642 50.176 19.7047 50.1071 19.7469 50.0391C19.7892 49.9711 19.8331 49.9041 19.8787 49.8385C19.9243 49.7727 19.9715 49.708 20.0203 49.6448C20.0691 49.5815 20.1195 49.5194 20.1715 49.4586C20.2236 49.3977 20.2771 49.3383 20.332 49.2801C20.387 49.2219 20.4434 49.1653 20.5014 49.1102C20.5592 49.0547 20.6184 49.001 20.6789 48.9489C20.7394 48.8965 20.8013 48.8457 20.8644 48.7967C20.9276 48.7475 20.992 48.6998 21.0576 48.6541C21.1231 48.6082 21.1897 48.5641 21.2574 48.5215C21.3252 48.4789 21.3941 48.4381 21.4639 48.3991C21.5338 48.36 21.6045 48.3229 21.6762 48.2873C21.7479 48.2518 21.8205 48.2182 21.8939 48.1864C21.9674 48.1545 22.0415 48.1246 22.1164 48.0967C22.1914 48.0686 22.267 48.0424 22.3432 48.0182C22.4195 47.994 22.4963 47.9717 22.5736 47.9514C22.651 47.9309 22.7288 47.9125 22.8072 47.8961C22.8855 47.8797 22.9641 47.8653 23.0432 47.8528C23.1222 47.8403 23.2015 47.8299 23.281 47.8215C23.3606 47.813 23.4404 47.8065 23.5203 47.8021C23.6001 47.7978 23.6801 47.7955 23.7601 47.7951C23.8401 47.7947 23.92 47.7963 24 47.8L43.8499 47.8C44.6421 47.0863 45.4491 46.3897 46.2706 45.7101C47.0921 45.0304 47.9277 44.3684 48.7771 43.724C49.6267 43.0796 50.4892 42.4533 51.365 41.8451C52.2407 41.237 53.129 40.6476 54.0296 40.0769C54.9304 39.5063 55.8427 38.9549 56.7665 38.4226C57.6904 37.8903 58.6251 37.3778 59.5704 36.8849C60.5161 36.3921 61.4716 35.9194 62.4368 35.4668C63.4023 35.014 64.3767 34.5819 65.3603 34.1705C66.3439 33.7589 67.3357 33.3682 68.3357 32.9984C69.3359 32.6286 70.3433 32.28 71.3579 31.9527C72.3728 31.6253 73.3939 31.3195 74.4214 31.0351C75.4491 30.7507 76.4823 30.4882 77.521 30.2474C78.5597 30.0065 79.603 29.7877 80.6507 29.591C81.6987 29.3941 82.7503 29.2194 83.8056 29.0668C84.8609 28.9142 85.9189 28.7839 86.9796 28.6759C88.0404 28.568 89.1029 28.4824 90.1671 28.4191C91.2316 28.356 92.2968 28.3152 93.3628 28.2968C94.429 28.2785 95.495 28.2826 96.5609 28.3091C97.6269 28.3357 98.6917 28.3847 99.7554 28.456C100.819 28.5275 101.881 28.6213 102.941 28.7375C104.001 28.8536 105.058 28.992 106.112 29.1527C107.166 29.3134 108.216 29.4961 109.263 29.7009C110.309 29.9059 111.351 30.1328 112.387 30.3816C113.424 30.6304 114.455 30.9009 115.481 31.1931C116.506 31.4853 117.525 31.799 118.537 32.1341C119.549 32.4693 120.554 32.8256 121.551 33.2031C122.548 33.5806 123.537 33.9789 124.517 34.398C125.498 34.8171 126.469 35.2567 127.431 35.7168C128.393 36.1768 129.344 36.6569 130.286 37.157C131.228 37.6571 132.159 38.1769 133.078 38.7164C133.998 39.2557 134.906 39.8142 135.802 40.3918C136.699 40.9694 137.582 41.5656 138.453 42.1804C139.324 42.7952 140.182 43.428 141.026 44.0791C141.871 44.73 142.701 45.3984 143.518 46.0843C144.334 46.7703 145.135 47.4731 145.922 48.1928C146.709 48.9125 147.48 49.6485 148.236 50.4006C148.992 51.1528 149.731 51.9205 150.454 52.7039C151.178 53.4871 151.884 54.2854 152.574 55.0987C153.264 55.9118 153.936 56.7391 154.591 57.5805C155.246 58.4219 155.883 59.2766 156.501 60.145C157.12 61.0133 157.721 61.8942 158.302 62.7877C158.884 63.6811 159.447 64.5866 159.99 65.5039C160.534 66.4211 161.058 67.3493 161.562 68.2887C162.067 69.228 162.551 70.1776 163.016 71.1373C163.48 72.0971 163.925 73.066 164.348 74.0446C164.772 75.0231 165.175 76.01 165.557 77.0055C165.939 78.0008 166.3 79.0037 166.64 80.0145C166.979 81.025 167.298 82.0424 167.595 83.0664C167.892 84.0905 168.167 85.1203 168.421 86.1559C168.674 87.1914 168.906 88.2321 169.116 89.2776C169.326 90.3229 169.513 91.3721 169.679 92.4256C169.844 93.4787 169.988 94.5352 170.109 95.5946C170.23 96.6537 170.328 97.7151 170.405 98.7787C170.481 99.8422 170.535 100.907 170.567 101.973C170.598 103.038 170.607 104.104 170.594 105.171C170.58 106.237 170.544 107.302 170.486 108.367C170.428 109.431 170.347 110.494 170.244 111.556C170.141 112.617 170.016 113.675 169.868 114.731C169.72 115.787 169.55 116.84 169.359 117.889C169.167 118.937 168.952 119.981 168.717 121.021C168.481 122.061 168.223 123.096 167.943 124.124C167.664 125.153 167.362 126.176 167.04 127.192C166.717 128.208 166.373 129.217 166.008 130.219C165.643 131.221 165.257 132.214 164.85 133.2L175.85 133.2C175.927 133.201 176.004 133.203 176.081 133.208C176.159 133.212 176.235 133.218 176.312 133.226C176.389 133.235 176.466 133.245 176.542 133.256C176.618 133.268 176.694 133.282 176.77 133.298C176.845 133.314 176.921 133.331 176.995 133.35C177.07 133.369 177.144 133.39 177.218 133.413C177.292 133.436 177.365 133.461 177.437 133.487C177.51 133.514 177.582 133.542 177.653 133.572C177.724 133.602 177.795 133.634 177.864 133.667C177.934 133.7 178.003 133.736 178.071 133.772C178.139 133.809 178.205 133.847 178.271 133.888C178.338 133.927 178.403 133.969 178.467 134.012C178.531 134.055 178.594 134.1 178.655 134.147C178.717 134.193 178.778 134.24 178.837 134.29C178.897 134.339 178.955 134.389 179.012 134.442C179.069 134.494 179.125 134.547 179.179 134.602C179.234 134.656 179.287 134.713 179.339 134.77C179.39 134.827 179.441 134.886 179.489 134.946C179.538 135.005 179.586 135.066 179.631 135.129C179.677 135.191 179.722 135.254 179.764 135.318C179.807 135.382 179.848 135.448 179.888 135.514C179.927 135.58 179.965 135.647 180.002 135.716C180.038 135.784 180.073 135.853 180.106 135.923C180.139 135.993 180.17 136.063 180.199 136.135C180.229 136.206 180.257 136.278 180.283 136.351C180.309 136.423 180.333 136.497 180.355 136.571C180.378 136.644 180.398 136.719 180.417 136.794C180.436 136.869 180.453 136.944 180.468 137.02C180.483 137.095 180.496 137.171 180.508 137.248C180.519 137.324 180.529 137.401 180.536 137.478C180.544 137.554 180.55 137.631 180.554 137.709C180.558 137.786 180.56 137.863 180.56 137.94Z"></path><path     fill="#C08EAF" fill-opacity="0.2" d="M180.56 137.94C180.56 138.017 180.558 138.095 180.554 138.172C180.55 138.25 180.544 138.327 180.536 138.404C180.528 138.481 180.519 138.558 180.507 138.635C180.496 138.712 180.483 138.788 180.467 138.864C180.452 138.94 180.435 139.016 180.416 139.091C180.397 139.166 180.376 139.241 180.354 139.315C180.331 139.389 180.307 139.463 180.28 139.536C180.254 139.608 180.226 139.681 180.196 139.752C180.167 139.824 180.135 139.895 180.102 139.965C180.069 140.035 180.034 140.104 179.997 140.172C179.961 140.241 179.922 140.308 179.883 140.375C179.843 140.441 179.801 140.507 179.758 140.571C179.715 140.636 179.67 140.699 179.624 140.761C179.578 140.823 179.53 140.884 179.481 140.944C179.432 141.004 179.381 141.063 179.329 141.12C179.277 141.178 179.224 141.234 179.169 141.289C179.114 141.343 179.058 141.397 179 141.449C178.943 141.501 178.884 141.552 178.824 141.601C178.764 141.65 178.703 141.698 178.641 141.744C178.579 141.79 178.515 141.835 178.451 141.878C178.386 141.921 178.321 141.963 178.255 142.003C178.188 142.042 178.121 142.081 178.052 142.117C177.984 142.154 177.915 142.189 177.845 142.222C177.775 142.255 177.704 142.287 177.632 142.317C177.561 142.346 177.488 142.374 177.415 142.4C177.342 142.427 177.269 142.451 177.195 142.474C177.121 142.496 177.046 142.517 176.971 142.536C176.896 142.555 176.82 142.572 176.744 142.587C176.668 142.603 176.592 142.616 176.515 142.627C176.438 142.639 176.361 142.648 176.284 142.656C176.207 142.664 176.13 142.67 176.052 142.674C175.975 142.678 175.898 142.68 175.82 142.68L147.35 142.68C147.272 142.68 147.195 142.682 147.117 142.687C147.04 142.691 146.963 142.697 146.885 142.705C146.808 142.713 146.731 142.722 146.654 142.734C146.578 142.746 146.501 142.759 146.425 142.775C146.349 142.79 146.274 142.807 146.199 142.826C146.123 142.845 146.049 142.866 145.974 142.889C145.9 142.912 145.827 142.936 145.754 142.963C145.681 142.989 145.609 143.017 145.537 143.047C145.465 143.077 145.394 143.109 145.324 143.142C145.254 143.175 145.185 143.21 145.117 143.247C145.048 143.284 144.981 143.322 144.914 143.362C144.848 143.402 144.783 143.444 144.718 143.487C144.654 143.53 144.59 143.575 144.528 143.621C144.466 143.668 144.405 143.715 144.345 143.765C144.285 143.814 144.226 143.865 144.169 143.917C144.111 143.969 144.055 144.023 144 144.078C143.946 144.132 143.892 144.189 143.84 144.246C143.788 144.304 143.738 144.363 143.688 144.423C143.639 144.483 143.592 144.544 143.545 144.606C143.499 144.669 143.455 144.732 143.411 144.797C143.368 144.861 143.327 144.927 143.287 144.993C143.247 145.06 143.209 145.127 143.172 145.196C143.136 145.264 143.101 145.333 143.067 145.403C143.034 145.473 143.003 145.544 142.973 145.616C142.943 145.688 142.916 145.76 142.889 145.833C142.863 145.906 142.839 145.98 142.816 146.054C142.794 146.128 142.773 146.203 142.754 146.278C142.735 146.353 142.718 146.429 142.703 146.505C142.687 146.581 142.674 146.658 142.662 146.734C142.651 146.811 142.642 146.888 142.634 146.965C142.626 147.043 142.62 147.12 142.616 147.197C142.612 147.275 142.61 147.352 142.61 147.43C142.61 147.507 142.612 147.585 142.616 147.663C142.619 147.74 142.625 147.817 142.633 147.895C142.64 147.972 142.65 148.049 142.661 148.126C142.673 148.202 142.686 148.279 142.701 148.355C142.716 148.431 142.733 148.506 142.752 148.582C142.771 148.657 142.792 148.732 142.814 148.806C142.837 148.88 142.861 148.954 142.887 149.027C142.913 149.1 142.941 149.172 142.971 149.244C143 149.315 143.032 149.386 143.065 149.457C143.098 149.527 143.133 149.596 143.17 149.664C143.206 149.733 143.244 149.8 143.284 149.867C143.324 149.933 143.366 149.999 143.409 150.064C143.452 150.128 143.497 150.191 143.543 150.254C143.589 150.316 143.637 150.377 143.686 150.437C143.735 150.497 143.786 150.556 143.838 150.613C143.89 150.671 143.943 150.727 143.998 150.782C144.053 150.836 144.109 150.89 144.167 150.942C144.224 150.994 144.283 151.045 144.343 151.094C144.403 151.143 144.464 151.191 144.526 151.237C144.589 151.283 144.652 151.328 144.717 151.371C144.781 151.414 144.847 151.456 144.913 151.496C144.98 151.536 145.047 151.574 145.116 151.61C145.184 151.647 145.253 151.682 145.323 151.715C145.393 151.748 145.464 151.78 145.536 151.809C145.608 151.839 145.68 151.867 145.753 151.893C145.826 151.919 145.9 151.943 145.974 151.966C146.048 151.988 146.123 152.009 146.198 152.028C146.274 152.047 146.349 152.064 146.425 152.079C146.501 152.094 146.578 152.107 146.654 152.119C146.731 152.13 146.808 152.139 146.885 152.147C146.963 152.155 147.04 152.16 147.117 152.164C147.195 152.168 147.272 152.17 147.35 152.17L156.84 152.17C156.918 152.17 156.995 152.172 157.073 152.176C157.15 152.18 157.228 152.186 157.305 152.194C157.382 152.202 157.459 152.211 157.536 152.223C157.613 152.234 157.689 152.248 157.765 152.263C157.841 152.278 157.917 152.295 157.992 152.314C158.068 152.333 158.142 152.354 158.217 152.377C158.291 152.4 158.364 152.424 158.437 152.45C158.51 152.477 158.583 152.505 158.655 152.534C158.726 152.564 158.797 152.596 158.867 152.629C158.938 152.662 159.007 152.697 159.075 152.734C159.143 152.771 159.211 152.809 159.277 152.849C159.344 152.889 159.41 152.931 159.474 152.974C159.539 153.017 159.602 153.062 159.664 153.108C159.727 153.155 159.788 153.202 159.848 153.252C159.908 153.301 159.966 153.352 160.024 153.404C160.081 153.456 160.137 153.51 160.192 153.565C160.247 153.62 160.301 153.676 160.353 153.734C160.405 153.791 160.455 153.85 160.504 153.91C160.554 153.97 160.601 154.031 160.648 154.094C160.694 154.156 160.739 154.22 160.782 154.284C160.825 154.349 160.866 154.414 160.906 154.481C160.946 154.547 160.984 154.615 161.02 154.684C161.057 154.752 161.092 154.821 161.125 154.892C161.158 154.962 161.19 155.033 161.219 155.105C161.249 155.176 161.277 155.249 161.303 155.322C161.329 155.395 161.353 155.469 161.376 155.543C161.399 155.617 161.419 155.692 161.438 155.767C161.457 155.843 161.474 155.918 161.489 155.995C161.504 156.071 161.517 156.147 161.529 156.224C161.54 156.301 161.55 156.378 161.557 156.455C161.565 156.532 161.57 156.61 161.574 156.687C161.578 156.765 161.58 156.842 161.58 156.92C161.58 156.997 161.578 157.075 161.574 157.152C161.57 157.23 161.564 157.307 161.556 157.384C161.549 157.461 161.539 157.538 161.527 157.615C161.516 157.692 161.502 157.768 161.487 157.844C161.472 157.92 161.455 157.996 161.436 158.071C161.417 158.146 161.396 158.221 161.374 158.295C161.351 158.369 161.327 158.443 161.3 158.516C161.274 158.589 161.246 158.661 161.217 158.732C161.187 158.804 161.155 158.875 161.122 158.945C161.089 159.015 161.054 159.084 161.017 159.153C160.981 159.221 160.942 159.288 160.902 159.355C160.863 159.421 160.821 159.487 160.778 159.551C160.735 159.615 160.69 159.679 160.644 159.741C160.598 159.803 160.55 159.864 160.501 159.924C160.452 159.984 160.401 160.043 160.349 160.1C160.297 160.158 160.244 160.214 160.189 160.269C160.134 160.323 160.078 160.377 160.02 160.429C159.963 160.481 159.904 160.532 159.844 160.581C159.784 160.63 159.723 160.678 159.661 160.724C159.599 160.77 159.535 160.815 159.471 160.858C159.407 160.901 159.341 160.943 159.275 160.983C159.208 161.022 159.141 161.061 159.072 161.097C159.004 161.134 158.935 161.169 158.865 161.202C158.795 161.235 158.724 161.267 158.652 161.297C158.581 161.326 158.508 161.354 158.435 161.38C158.363 161.407 158.289 161.431 158.215 161.454C158.141 161.476 158.066 161.497 157.991 161.516C157.916 161.535 157.84 161.552 157.764 161.567C157.688 161.582 157.612 161.596 157.535 161.607C157.458 161.619 157.381 161.629 157.304 161.636C157.227 161.644 157.15 161.65 157.072 161.654C156.995 161.658 156.917 161.66 156.84 161.66L144.24 161.66C143.444 162.348 142.634 163.019 141.809 163.673C140.985 164.327 140.148 164.964 139.298 165.583C138.447 166.203 137.584 166.804 136.708 167.388C135.833 167.971 134.946 168.536 134.046 169.083C133.147 169.629 132.237 170.157 131.316 170.666C130.395 171.174 129.464 171.664 128.523 172.134C127.582 172.604 126.631 173.054 125.671 173.485C124.711 173.915 123.742 174.326 122.765 174.716C121.788 175.106 120.803 175.476 119.811 175.825C118.818 176.174 117.819 176.503 116.813 176.811C115.807 177.119 114.795 177.406 113.776 177.671C112.759 177.937 111.735 178.181 110.707 178.405C109.679 178.628 108.646 178.829 107.61 179.01C106.573 179.19 105.533 179.348 104.49 179.486C103.447 179.622 102.401 179.738 101.353 179.831C100.305 179.925 99.2558 179.997 98.2048 180.047C97.1538 180.097 96.1023 180.125 95.0501 180.131C93.998 180.137 92.9462 180.121 91.8947 180.084C90.8433 180.046 89.7931 179.987 88.7439 179.906C87.6948 179.825 86.648 179.722 85.6032 179.597C84.5585 179.472 83.5167 179.326 82.478 179.158C81.4394 178.99 80.4048 178.8 79.3739 178.589C78.3431 178.379 77.3171 178.146 76.296 177.893C75.2749 177.639 74.2595 177.364 73.2497 177.068C72.2402 176.772 71.237 176.455 70.2404 176.118C69.2439 175.781 68.2548 175.422 67.2732 175.044C66.2915 174.665 65.3183 174.266 64.3531 173.847C63.388 173.428 62.4322 172.989 61.4853 172.53C60.5384 172.071 59.6015 171.592 58.6745 171.095C57.7478 170.597 56.8316 170.08 55.9261 169.544C55.0206 169.008 54.1267 168.454 53.2443 167.88C52.3618 167.307 51.4917 166.716 50.6339 166.107C49.7761 165.498 48.9314 164.871 48.0995 164.227C47.2679 163.582 46.4499 162.921 45.6456 162.242C44.8413 161.564 44.0515 160.869 43.2761 160.158C42.5007 159.447 41.7406 158.72 40.9952 157.977C40.2501 157.234 39.5208 156.476 38.8072 155.703C38.0935 154.93 37.3962 154.142 36.7152 153.34C36.0343 152.538 35.3704 151.722 34.7234 150.892C34.0765 150.063 33.447 149.22 32.8351 148.364C32.2232 147.508 31.6292 146.639 31.0533 145.759C30.4775 144.878 29.9202 143.986 29.3814 143.082C28.8426 142.179 28.3229 141.264 27.8223 140.339C27.3215 139.414 26.8402 138.478 26.3783 137.533C25.9165 136.587 25.4744 135.633 25.0521 134.669C24.63 133.705 24.2281 132.733 23.8463 131.753C23.4645 130.772 23.1033 129.784 22.7625 128.789C22.4219 127.793 22.102 126.791 21.8029 125.782C21.504 124.774 21.226 123.759 20.9691 122.739C20.7122 121.718 20.4767 120.693 20.2625 119.663C20.0482 118.633 19.8554 117.599 19.6842 116.561C19.5129 115.522 19.3633 114.481 19.2354 113.437C19.1074 112.393 19.0012 111.346 18.9167 110.297C18.8323 109.248 18.7696 108.198 18.7288 107.147C18.688 106.096 18.6691 105.044 18.672 103.992C18.6749 102.939 18.6997 101.888 18.7463 100.837C18.7929 99.7858 18.8614 98.736 18.9517 97.6877C19.0419 96.6393 19.154 95.5934 19.2877 94.5498C19.4215 93.5061 19.5768 92.4659 19.7539 91.4287C19.9309 90.3914 20.1293 89.3584 20.3492 88.3295C20.5691 87.3006 20.8104 86.2766 21.073 85.2578C21.3355 84.2389 21.6191 83.226 21.9236 82.219C22.2283 81.2118 22.5537 80.2114 22.8998 79.2178C23.246 78.2243 23.6127 77.2383 24 76.26L14.51 76.26C14.4346 76.2565 14.3593 76.2512 14.2842 76.2442C14.2091 76.2371 14.1341 76.2284 14.0594 76.2178C13.9847 76.2071 13.9103 76.1946 13.8362 76.1805C13.762 76.1664 13.6883 76.1504 13.6149 76.1328C13.5416 76.1151 13.4687 76.0957 13.3962 76.0746C13.3238 76.0534 13.2519 76.0305 13.1806 76.0059C13.1092 75.9813 13.0385 75.9549 12.9684 75.9272C12.8983 75.8991 12.8289 75.8696 12.7602 75.8383C12.6915 75.8071 12.6236 75.7741 12.5565 75.7397C12.4894 75.7051 12.4231 75.669 12.3577 75.6315C12.2923 75.5938 12.2278 75.5545 12.1643 75.5139C12.1008 75.4731 12.0383 75.4309 11.9767 75.3871C11.9152 75.3434 11.8548 75.2983 11.7954 75.2518C11.736 75.2051 11.6778 75.1571 11.6207 75.1078C11.5637 75.0584 11.5078 75.0077 11.4531 74.9557C11.3985 74.9037 11.3451 74.8504 11.2929 74.7959C11.2408 74.7412 11.19 74.6856 11.1405 74.6285C11.0911 74.5715 11.043 74.5133 10.9963 74.4541C10.9496 74.3948 10.9044 74.3344 10.8605 74.2731C10.8167 74.2116 10.7744 74.1491 10.7335 74.0856C10.6927 74.0221 10.6534 73.9576 10.6156 73.8924C10.5779 73.827 10.5417 73.7608 10.5071 73.6938C10.4724 73.6266 10.4394 73.5588 10.4081 73.4903C10.3767 73.4215 10.3469 73.3522 10.3189 73.2823C10.2908 73.2121 10.2644 73.1414 10.2397 73.0703C10.215 72.9989 10.192 72.927 10.1707 72.8547C10.1494 72.7823 10.1299 72.7094 10.112 72.6362C10.0942 72.5627 10.0782 72.4891 10.0639 72.4151C10.0496 72.3409 10.0371 72.2664 10.0263 72.1918C10.0156 72.117 10.0066 72.042 9.99941 71.967C9.99223 71.8918 9.98685 71.8166 9.98325 71.7412C9.97966 71.6659 9.97786 71.5905 9.97786 71.5151C9.97786 71.4395 9.97966 71.3641 9.98325 71.2887C9.98685 71.2133 9.99223 71.1379 9.99941 71.0629C10.0066 70.9877 10.0156 70.9129 10.0263 70.8383C10.0371 70.7635 10.0496 70.6891 10.0639 70.6151C10.0782 70.5409 10.0942 70.4672 10.112 70.394C10.1299 70.3205 10.1494 70.2477 10.1707 70.1754C10.192 70.1028 10.215 70.0309 10.2397 69.9598C10.2644 69.8883 10.2908 69.8176 10.3189 69.7477C10.3469 69.6776 10.3767 69.6082 10.4081 69.5397C10.4394 69.4709 10.4724 69.4032 10.5071 69.3362C10.5417 69.269 10.5779 69.2028 10.6156 69.1375C10.6534 69.0723 10.6927 69.0078 10.7335 68.9444C10.7744 68.8809 10.8167 68.8184 10.8605 68.7571C10.9044 68.6955 10.9496 68.6352 10.9963 68.576C11.043 68.5166 11.0911 68.4584 11.1406 68.4016C11.19 68.3446 11.2408 68.2887 11.2929 68.2342C11.3451 68.1795 11.3985 68.1262 11.4531 68.0742C11.5078 68.0223 11.5637 67.9715 11.6207 67.9223C11.6778 67.8727 11.736 67.8248 11.7954 67.7784C11.8548 67.7317 11.9152 67.6866 11.9767 67.6428C12.0383 67.5991 12.1008 67.5569 12.1643 67.5163C12.2278 67.4754 12.2923 67.4362 12.3577 67.3987C12.4231 67.361 12.4894 67.3248 12.5565 67.2905C12.6236 67.2559 12.6915 67.2231 12.7602 67.1918C12.8289 67.1604 12.8983 67.1307 12.9684 67.103C13.0385 67.0748 13.1092 67.0487 13.1806 67.0241C13.2519 66.9995 13.3238 66.9766 13.3962 66.9555C13.4687 66.9344 13.5416 66.9149 13.6149 66.8973C13.6883 66.8795 13.762 66.8635 13.8362 66.8494C13.9103 66.8352 13.9847 66.8229 14.0594 66.8123C14.1341 66.8016 14.2091 66.7928 14.2842 66.7858C14.3593 66.7787 14.4346 66.7735 14.51 66.77L33.5099 66.77C33.5806 66.77 33.6511 66.7686 33.7216 66.7655C33.7921 66.7623 33.8624 66.7575 33.9327 66.7512C34.0031 66.745 34.0732 66.7371 34.1431 66.7278C34.213 66.7184 34.2827 66.7075 34.3521 66.695C34.4216 66.6823 34.4908 66.6682 34.5595 66.6528C34.6283 66.6371 34.6968 66.62 34.7648 66.6012C34.8329 66.5825 34.9005 66.5623 34.9675 66.5409C35.0347 66.519 35.1015 66.4959 35.1675 66.4713C35.2337 66.4465 35.2991 66.4203 35.364 66.393C35.429 66.3653 35.4933 66.3364 35.557 66.3059C35.6206 66.2754 35.6837 66.2436 35.7458 66.2104C35.8081 66.177 35.8697 66.1424 35.9302 66.1065C35.9909 66.0703 36.0507 66.033 36.1097 65.9944C36.1687 65.9557 36.2269 65.9157 36.2841 65.8745C36.3415 65.833 36.3978 65.7907 36.4529 65.7469C36.5083 65.703 36.5626 65.6579 36.6159 65.6118C36.6693 65.5655 36.7216 65.5182 36.7728 65.4698C36.824 65.4211 36.8741 65.3715 36.923 65.3207C36.972 65.27 37.0199 65.218 37.0665 65.1651C37.1132 65.1121 37.1587 65.0582 37.2029 65.0034C37.2472 64.9483 37.2902 64.8922 37.332 64.8356C37.3738 64.7785 37.4144 64.7207 37.4534 64.6621C37.4925 64.6035 37.5304 64.544 37.5669 64.4836C37.6036 64.4231 37.6388 64.362 37.6724 64.3C37.7064 64.2381 37.7388 64.1754 37.7697 64.1121C37.8007 64.0487 37.8302 63.9846 37.8583 63.92C37.8865 63.8551 37.9132 63.7899 37.9384 63.7241C37.9636 63.658 37.9872 63.5916 38.0095 63.5246C38.0318 63.4577 38.0527 63.3903 38.0718 63.3225C38.0911 63.2545 38.1089 63.1862 38.1249 63.1176C38.1411 63.0489 38.1558 62.9797 38.1689 62.9106C38.1822 62.841 38.1937 62.7715 38.2034 62.7018C38.2136 62.6319 38.222 62.5619 38.2288 62.4916C38.2359 62.4213 38.2411 62.351 38.2447 62.2807C38.2486 62.21 38.2507 62.1395 38.2511 62.0692C38.2519 61.9985 38.2509 61.928 38.2482 61.8575C38.2456 61.7868 38.2415 61.7164 38.2359 61.6461C38.2302 61.5758 38.223 61.5057 38.214 61.4358C38.2052 61.3657 38.1949 61.2959 38.1827 61.2264C38.1708 61.1569 38.1574 61.0875 38.1421 61.0186C38.1273 60.9496 38.1107 60.8811 38.0925 60.8129C38.0743 60.7446 38.0546 60.6768 38.0335 60.6096C38.0124 60.5422 37.9898 60.4754 37.9656 60.4092C37.9415 60.3428 37.9159 60.2772 37.8888 60.2119C37.8618 60.1467 37.8333 60.0823 37.8033 60.0184C37.7734 59.9543 37.7421 59.8912 37.7093 59.8287C37.6765 59.7662 37.6423 59.7045 37.6068 59.6436C37.5712 59.5826 37.5345 59.5225 37.4962 59.4631C37.4579 59.4037 37.4185 59.3453 37.3777 59.2879C37.3368 59.2303 37.2947 59.1737 37.2513 59.118C37.2081 59.0623 37.1636 59.0077 37.1177 58.9539C37.072 58.9002 37.0249 58.8477 36.9767 58.7961C36.9286 58.7446 36.8794 58.694 36.829 58.6446C36.7786 58.5952 36.7273 58.5469 36.6745 58.4998C36.622 58.4528 36.5685 58.4069 36.5138 58.3621C36.4593 58.3174 36.4036 58.2741 36.347 58.2319C36.2906 58.1897 36.2331 58.1487 36.1747 58.109C36.1165 58.0694 36.0572 58.0311 35.997 57.994C35.937 57.9569 35.8761 57.9213 35.8144 57.8871C35.7527 57.8528 35.6904 57.82 35.6271 57.7885C35.5642 57.7569 35.5003 57.7268 35.4357 57.6983C35.3712 57.6696 35.3062 57.6424 35.2404 57.6166C35.1747 57.5909 35.1085 57.5664 35.0417 57.5438C34.9749 57.5211 34.9077 57.4998 34.84 57.4801L34.99 57.2901L24 57.2901C23.92 57.2936 23.8401 57.2953 23.7601 57.295C23.6801 57.2946 23.6001 57.292 23.5203 57.2877C23.4404 57.2834 23.3606 57.277 23.281 57.2686C23.2015 57.26 23.1222 57.2496 23.0432 57.2371C22.9641 57.2246 22.8855 57.2104 22.8072 57.194C22.7288 57.1774 22.651 57.159 22.5736 57.1387C22.4963 57.1184 22.4195 57.0961 22.3432 57.0719C22.267 57.0475 22.1914 57.0213 22.1164 56.9934C22.0415 56.9653 21.9674 56.9354 21.8939 56.9035C21.8205 56.8717 21.7479 56.8381 21.6762 56.8028C21.6045 56.7672 21.5338 56.7299 21.4639 56.6909C21.3941 56.6518 21.3252 56.611 21.2574 56.5686C21.1897 56.526 21.1231 56.4817 21.0576 56.436C20.992 56.3899 20.9276 56.3424 20.8644 56.2934C20.8013 56.2442 20.7394 56.1934 20.6789 56.1412C20.6184 56.0889 20.5592 56.0352 20.5014 55.9799C20.4434 55.9246 20.387 55.868 20.332 55.8098C20.2771 55.7516 20.2236 55.6922 20.1715 55.6315C20.1195 55.5705 20.0691 55.5084 20.0203 55.4452C19.9715 55.3819 19.9243 55.3172 19.8787 55.2516C19.8331 55.1858 19.7892 55.119 19.7469 55.051C19.7047 54.983 19.6642 54.9139 19.6256 54.844C19.5868 54.7739 19.5498 54.703 19.5147 54.6311C19.4796 54.5592 19.4463 54.4864 19.4148 54.4129C19.3834 54.3393 19.3538 54.2651 19.3261 54.1901C19.2984 54.1151 19.2726 54.0393 19.2487 53.9629C19.2248 53.8866 19.2029 53.8096 19.1829 53.7323C19.1629 53.6547 19.1449 53.5768 19.1288 53.4985C19.1127 53.42 19.0987 53.3412 19.0866 53.2621C19.0745 53.183 19.0644 53.1037 19.0564 53.0243C19.0483 52.9446 19.0422 52.8647 19.0382 52.785C19.0342 52.7049 19.0321 52.625 19.0321 52.545C19.0321 52.4649 19.0342 52.385 19.0382 52.3051C19.0422 52.2252 19.0483 52.1455 19.0564 52.0659C19.0644 51.9862 19.0745 51.9069 19.0866 51.8278C19.0987 51.7487 19.1127 51.67 19.1288 51.5916C19.1449 51.5131 19.1629 51.4352 19.1829 51.3578C19.2029 51.2803 19.2248 51.2034 19.2487 51.1272C19.2726 51.0506 19.2984 50.975 19.3261 50.9C19.3538 50.8248 19.3834 50.7504 19.4148 50.677C19.4463 50.6034 19.4796 50.5307 19.5147 50.4588C19.5498 50.3869 19.5868 50.3161 19.6256 50.2461C19.6642 50.176 19.7047 50.1071 19.7469 50.0391C19.7892 49.9711 19.8331 49.9041 19.8787 49.8385C19.9243 49.7727 19.9715 49.708 20.0203 49.6448C20.0691 49.5815 20.1195 49.5194 20.1715 49.4586C20.2236 49.3977 20.2771 49.3383 20.332 49.2801C20.387 49.2219 20.4434 49.1653 20.5014 49.1102C20.5592 49.0547 20.6184 49.001 20.6789 48.9489C20.7394 48.8965 20.8013 48.8457 20.8644 48.7967C20.9276 48.7475 20.992 48.6998 21.0576 48.6541C21.1231 48.6082 21.1897 48.5641 21.2574 48.5215C21.3252 48.4789 21.3941 48.4381 21.4639 48.3991C21.5338 48.36 21.6045 48.3229 21.6762 48.2873C21.7479 48.2518 21.8205 48.2182 21.8939 48.1864C21.9674 48.1545 22.0415 48.1246 22.1164 48.0967C22.1914 48.0686 22.267 48.0424 22.3432 48.0182C22.4195 47.994 22.4963 47.9717 22.5736 47.9514C22.651 47.9309 22.7288 47.9125 22.8072 47.8961C22.8855 47.8797 22.9641 47.8653 23.0432 47.8528C23.1222 47.8403 23.2015 47.8299 23.281 47.8215C23.3606 47.813 23.4404 47.8065 23.5203 47.8021C23.6001 47.7978 23.6801 47.7955 23.7601 47.7951C23.8401 47.7947 23.92 47.7963 24 47.8L43.8499 47.8C44.6421 47.0863 45.4491 46.3897 46.2706 45.7101C47.0921 45.0304 47.9277 44.3684 48.7771 43.724C49.6267 43.0796 50.4892 42.4533 51.365 41.8451C52.2407 41.237 53.129 40.6476 54.0296 40.0769C54.9304 39.5063 55.8427 38.9549 56.7665 38.4226C57.6904 37.8903 58.6251 37.3778 59.5704 36.8849C60.5161 36.3921 61.4716 35.9194 62.4368 35.4668C63.4023 35.014 64.3767 34.5819 65.3603 34.1705C66.3439 33.7589 67.3357 33.3682 68.3357 32.9984C69.3359 32.6286 70.3433 32.28 71.3579 31.9527C72.3728 31.6253 73.3939 31.3195 74.4214 31.0351C75.4491 30.7507 76.4823 30.4882 77.521 30.2474C78.5597 30.0065 79.603 29.7877 80.6507 29.591C81.6987 29.3941 82.7503 29.2194 83.8056 29.0668C84.8609 28.9142 85.9189 28.7839 86.9796 28.6759C88.0404 28.568 89.1029 28.4824 90.1671 28.4191C91.2316 28.356 92.2968 28.3152 93.3628 28.2968C94.429 28.2785 95.495 28.2826 96.5609 28.3091C97.6269 28.3357 98.6917 28.3847 99.7554 28.456C100.819 28.5275 101.881 28.6213 102.941 28.7375C104.001 28.8536 105.058 28.992 106.112 29.1527C107.166 29.3134 108.216 29.4961 109.263 29.7009C110.309 29.9059 111.351 30.1328 112.387 30.3816C113.424 30.6304 114.455 30.9009 115.481 31.1931C116.506 31.4853 117.525 31.799 118.537 32.1341C119.549 32.4693 120.554 32.8256 121.551 33.2031C122.548 33.5806 123.537 33.9789 124.517 34.398C125.498 34.8171 126.469 35.2567 127.431 35.7168C128.393 36.1768 129.344 36.6569 130.286 37.157C131.228 37.6571 132.159 38.1769 133.078 38.7164C133.998 39.2557 134.906 39.8142 135.802 40.3918C136.699 40.9694 137.582 41.5656 138.453 42.1804C139.324 42.7952 140.182 43.428 141.026 44.0791C141.871 44.73 142.701 45.3984 143.518 46.0843C144.334 46.7703 145.135 47.4731 145.922 48.1928C146.709 48.9125 147.48 49.6485 148.236 50.4006C148.992 51.1528 149.731 51.9205 150.454 52.7039C151.178 53.4871 151.884 54.2854 152.574 55.0987C153.264 55.9118 153.936 56.7391 154.591 57.5805C155.246 58.4219 155.883 59.2766 156.501 60.145C157.12 61.0133 157.721 61.8942 158.302 62.7877C158.884 63.6811 159.447 64.5866 159.99 65.5039C160.534 66.4211 161.058 67.3493 161.562 68.2887C162.067 69.228 162.551 70.1776 163.016 71.1373C163.48 72.0971 163.925 73.066 164.348 74.0446C164.772 75.0231 165.175 76.01 165.557 77.0055C165.939 78.0008 166.3 79.0037 166.64 80.0145C166.979 81.025 167.298 82.0424 167.595 83.0664C167.892 84.0905 168.167 85.1203 168.421 86.1559C168.674 87.1914 168.906 88.2321 169.116 89.2776C169.326 90.3229 169.513 91.3721 169.679 92.4256C169.844 93.4787 169.988 94.5352 170.109 95.5946C170.23 96.6537 170.328 97.7151 170.405 98.7787C170.481 99.8422 170.535 100.907 170.567 101.973C170.598 103.038 170.607 104.104 170.594 105.171C170.58 106.237 170.544 107.302 170.486 108.367C170.428 109.431 170.347 110.494 170.244 111.556C170.141 112.617 170.016 113.675 169.868 114.731C169.72 115.787 169.55 116.84 169.359 117.889C169.167 118.937 168.952 119.981 168.717 121.021C168.481 122.061 168.223 123.096 167.943 124.124C167.664 125.153 167.362 126.176 167.04 127.192C166.717 128.208 166.373 129.217 166.008 130.219C165.643 131.221 165.257 132.214 164.85 133.2L175.85 133.2C175.927 133.201 176.004 133.203 176.081 133.208C176.159 133.212 176.235 133.218 176.312 133.226C176.389 133.235 176.466 133.245 176.542 133.256C176.618 133.268 176.694 133.282 176.77 133.298C176.845 133.314 176.921 133.331 176.995 133.35C177.07 133.369 177.144 133.39 177.218 133.413C177.292 133.436 177.365 133.461 177.437 133.487C177.51 133.514 177.582 133.542 177.653 133.572C177.724 133.602 177.795 133.634 177.864 133.667C177.934 133.7 178.003 133.736 178.071 133.772C178.139 133.809 178.205 133.847 178.271 133.888C178.338 133.927 178.403 133.969 178.467 134.012C178.531 134.055 178.594 134.1 178.655 134.147C178.717 134.193 178.778 134.24 178.837 134.29C178.897 134.339 178.955 134.389 179.012 134.442C179.069 134.494 179.125 134.547 179.179 134.602C179.234 134.656 179.287 134.713 179.339 134.77C179.39 134.827 179.441 134.886 179.489 134.946C179.538 135.005 179.586 135.066 179.631 135.129C179.677 135.191 179.722 135.254 179.764 135.318C179.807 135.382 179.848 135.448 179.888 135.514C179.927 135.58 179.965 135.647 180.002 135.716C180.038 135.784 180.073 135.853 180.106 135.923C180.139 135.993 180.17 136.063 180.199 136.135C180.229 136.206 180.257 136.278 180.283 136.351C180.309 136.423 180.333 136.497 180.355 136.571C180.378 136.644 180.398 136.719 180.417 136.794C180.436 136.869 180.453 136.944 180.468 137.02C180.483 137.095 180.496 137.171 180.508 137.248C180.519 137.324 180.529 137.401 180.536 137.478C180.544 137.554 180.55 137.631 180.554 137.709C180.558 137.786 180.56 137.863 180.56 137.94Z"></path><path     fill="#FFDAE0"  d="M110.51 93.53C110.495 93.5267 110.479 93.5237 110.464 93.5214C110.448 93.519 110.432 93.5173 110.417 93.5157C110.401 93.5145 110.386 93.5136 110.37 93.5132C110.354 93.5128 110.339 93.513 110.323 93.5134C110.307 93.5142 110.291 93.5151 110.276 93.5167C110.26 93.5182 110.245 93.5204 110.229 93.5228C110.214 93.5255 110.198 93.5284 110.183 93.5319C110.168 93.5354 110.153 93.5395 110.137 93.5438C110.123 93.5485 110.108 93.5534 110.093 93.5587C110.078 93.5641 110.064 93.57 110.049 93.5763C110.035 93.5827 110.021 93.5895 110.007 93.5966C109.993 93.604 109.979 93.6116 109.965 93.6196C109.952 93.6278 109.939 93.6362 109.926 93.645C109.913 93.654 109.9 93.6632 109.888 93.6729C109.876 93.6827 109.864 93.6927 109.852 93.703C109.84 93.7136 109.829 93.7245 109.818 93.7354C109.807 93.7468 109.796 93.7583 109.786 93.77C109.775 93.7819 109.765 93.794 109.756 93.8065C109.747 93.819 109.737 93.8317 109.728 93.8446C109.72 93.8577 109.711 93.871 109.703 93.8847C109.696 93.8983 109.688 93.912 109.681 93.9259C109.674 93.9399 109.667 93.9542 109.661 93.9686C109.655 93.9831 109.649 93.9977 109.644 94.0124C109.639 94.0272 109.634 94.0423 109.63 94.0573C109.625 94.0726 109.622 94.0878 109.618 94.103C109.615 94.1185 109.612 94.1339 109.61 94.1493C109.607 94.1649 109.606 94.1804 109.604 94.196C109.603 94.2116 109.602 94.2274 109.601 94.2431C109.601 94.2587 109.601 94.2745 109.602 94.2901C109.602 94.3058 109.603 94.3214 109.605 94.337C109.606 94.3526 109.608 94.3683 109.611 94.3837C109.614 94.3993 109.616 94.4147 109.62 94.43C110.24 97.3099 111.16 102.43 111.57 106.16C112.28 112.45 105.99 118.33 101.1 119.98C93.3999 122.63 84.5198 116.33 82.5198 108.98C80.2199 100.39 84.9899 89.9198 92.9299 86.5099C93.8098 86.0999 94.6899 85.7499 95.5799 85.3399C97.3999 84.5099 96.5198 83.1599 96.2198 81.9199C95.3999 78.5099 94.9299 75.0999 96.6899 71.9199C99.3399 67.1499 106.22 63.39 111.57 65.68C113.902 66.6028 116.158 67.6827 118.34 68.9199C118.395 68.9555 118.45 68.9923 118.504 69.03C118.558 69.0678 118.611 69.1066 118.663 69.1466C118.715 69.1866 118.767 69.2276 118.817 69.2695C118.868 69.3115 118.918 69.3546 118.967 69.3986C119.016 69.4425 119.064 69.4874 119.111 69.5333C119.158 69.5793 119.204 69.6262 119.25 69.674C119.295 69.7218 119.339 69.7704 119.382 69.8199C119.426 69.8695 119.468 69.9199 119.509 69.971C119.551 70.0223 119.591 70.0744 119.63 70.1273C119.669 70.1802 119.707 70.2338 119.744 70.2882C119.782 70.3425 119.818 70.3976 119.852 70.4535C119.887 70.5093 119.921 70.5658 119.953 70.623C119.986 70.6802 120.017 70.738 120.048 70.7964C120.078 70.8549 120.107 70.9139 120.135 70.9736C120.163 71.0332 120.19 71.0934 120.215 71.154C120.24 71.2147 120.265 71.2759 120.288 71.3374C120.311 71.3992 120.332 71.4613 120.353 71.5238C120.374 71.5863 120.393 71.6492 120.411 71.7124C120.429 71.7759 120.445 71.8395 120.461 71.9035C120.476 71.9674 120.49 72.0317 120.503 72.0962C120.516 72.1608 120.528 72.2256 120.538 72.2906C120.548 72.3555 120.557 72.4207 120.565 72.4861C120.573 72.5514 120.579 72.6169 120.584 72.6826C120.589 72.7482 120.592 72.8139 120.595 72.8796C120.597 72.9454 120.598 73.0112 120.598 73.0771C120.598 73.1428 120.596 73.2086 120.593 73.2744C120.59 73.3401 120.586 73.4057 120.581 73.4712C120.575 73.5368 120.568 73.6023 120.56 73.6677C120.552 73.7329 120.543 73.7981 120.532 73.863C120.521 73.9279 120.509 73.9925 120.496 74.057C120.482 74.1214 120.467 74.1855 120.451 74.2494C120.436 74.3133 120.418 74.3768 120.4 74.44C119.28 77.44 116.34 78.1499 113.22 76.33C112.116 75.6251 110.98 74.9784 109.81 74.39C109.748 74.357 109.685 74.3262 109.621 74.2976C109.557 74.2689 109.492 74.2424 109.427 74.2179C109.361 74.1936 109.294 74.1714 109.227 74.1515C109.16 74.1315 109.092 74.1137 109.024 74.0982C108.956 74.0827 108.887 74.0695 108.817 74.0585C108.748 74.0477 108.679 74.0391 108.609 74.0327C108.539 74.0265 108.469 74.0225 108.399 74.0208C108.329 74.0191 108.259 74.0198 108.189 74.0228C108.119 74.0258 108.049 74.0311 107.979 74.0386C107.91 74.0463 107.84 74.0562 107.771 74.0683C107.702 74.0805 107.634 74.0951 107.566 74.1118C107.498 74.1285 107.43 74.1475 107.363 74.1689C107.297 74.1901 107.231 74.2135 107.165 74.239C107.1 74.2646 107.036 74.2924 106.972 74.3222C106.909 74.3521 106.847 74.3841 106.785 74.4181C106.724 74.4521 106.664 74.4881 106.605 74.5261C106.546 74.5641 106.489 74.604 106.432 74.6458C106.376 74.6876 106.321 74.7312 106.268 74.7767C106.215 74.8223 106.163 74.8695 106.112 74.9183C106.062 74.9673 106.014 75.0178 105.967 75.0699C105.92 75.1219 105.875 75.1755 105.832 75.2306C105.788 75.2857 105.747 75.3422 105.707 75.4001C105.668 75.4579 105.63 75.517 105.594 75.5773C105.559 75.6377 105.525 75.6992 105.493 75.7618C105.462 75.8243 105.432 75.8879 105.405 75.9525C105.378 76.0169 105.352 76.0823 105.329 76.1486C105.307 76.2147 105.286 76.2816 105.267 76.3492C105.249 76.4167 105.232 76.4849 105.218 76.5536C105.204 76.6223 105.192 76.6913 105.183 76.7607C105.173 76.8302 105.166 76.8999 105.161 76.9699C105.157 77.0398 105.154 77.1098 105.154 77.1798C105.153 77.2499 105.156 77.3199 105.16 77.39C105.216 78.571 105.342 79.7443 105.54 80.9099C105.547 80.9527 105.555 80.9954 105.563 81.0378C105.572 81.0804 105.581 81.1228 105.591 81.165C105.601 81.2072 105.612 81.2492 105.624 81.291C105.635 81.3327 105.648 81.3743 105.661 81.4156C105.674 81.457 105.688 81.4981 105.702 81.539C105.717 81.5798 105.732 81.6203 105.748 81.6607C105.764 81.7009 105.781 81.7409 105.798 81.7806C105.816 81.8203 105.834 81.8597 105.853 81.8988C105.872 81.9378 105.891 81.9765 105.911 82.0148C105.932 82.0532 105.953 82.0911 105.974 82.1286C105.996 82.1663 106.018 82.2034 106.041 82.2402C106.064 82.277 106.088 82.3134 106.112 82.3493C106.136 82.3852 106.161 82.4206 106.187 82.4556C106.212 82.4906 106.239 82.5252 106.265 82.5593C106.292 82.5934 106.32 82.627 106.348 82.6601C106.376 82.6932 106.404 82.7257 106.433 82.7577C106.463 82.7899 106.492 82.8215 106.523 82.8525C106.553 82.8835 106.584 82.9139 106.615 82.9437C106.647 82.9736 106.679 83.0029 106.711 83.0316C106.744 83.0604 106.777 83.0885 106.81 83.116C106.844 83.1436 106.878 83.1705 106.912 83.1968C106.947 83.2231 106.982 83.2488 107.017 83.2738C107.053 83.2989 107.088 83.3233 107.124 83.347C107.161 83.3708 107.198 83.3939 107.235 83.4163C107.272 83.4387 107.309 83.4605 107.347 83.4816C107.385 83.5027 107.423 83.5231 107.462 83.5429C107.5 83.5626 107.54 83.5816 107.579 83.5999C107.618 83.6182 107.658 83.6357 107.698 83.6527C107.738 83.6695 107.778 83.6856 107.818 83.7011C107.859 83.7165 107.9 83.7312 107.941 83.7452C107.982 83.7592 108.023 83.7723 108.065 83.7847C108.106 83.7972 108.148 83.8089 108.19 83.8199C110.148 84.2528 112.061 84.8329 113.93 85.5599C121.51 88.9099 126.93 94.38 129.46 102.56C134.16 117.73 125.34 132.85 112.28 138.62C112.06 138.724 111.838 138.826 111.616 138.925C111.394 139.025 111.17 139.122 110.946 139.217C110.722 139.312 110.496 139.405 110.27 139.495C110.044 139.585 109.817 139.673 109.589 139.759C109.361 139.845 109.132 139.928 108.902 140.009C108.672 140.09 108.442 140.168 108.21 140.244C107.979 140.321 107.747 140.394 107.514 140.466C107.281 140.537 107.048 140.606 106.813 140.673C106.579 140.74 106.344 140.804 106.108 140.866C105.873 140.927 105.636 140.987 105.399 141.044C105.163 141.101 104.925 141.155 104.687 141.207C104.449 141.259 104.211 141.309 103.972 141.356C103.733 141.403 103.493 141.448 103.253 141.49C103.014 141.532 102.773 141.572 102.532 141.609C102.292 141.647 102.051 141.682 101.809 141.714C101.568 141.746 101.326 141.776 101.084 141.803C100.842 141.831 100.599 141.856 100.357 141.878C100.115 141.9 99.8717 141.92 99.6286 141.938C99.3856 141.955 99.1426 141.97 98.8993 141.982C98.6561 141.995 98.4128 142.005 98.1692 142.012C97.9258 142.019 97.6823 142.024 97.4385 142.027C97.195 142.029 96.9514 142.029 96.7077 142.026C96.4643 142.024 96.2208 142.019 95.9772 142.011C95.7339 142.003 95.4905 141.993 95.2471 141.981C95.0038 141.968 94.7606 141.953 94.5176 141.935C94.2747 141.918 94.0321 141.898 93.7895 141.875C93.5469 141.852 93.3047 141.827 93.0626 141.799C92.8206 141.772 92.5788 141.742 92.3374 141.709C92.096 141.677 91.8549 141.642 91.6143 141.604C91.3737 141.567 91.1333 141.527 90.8934 141.484C90.6536 141.442 90.4143 141.397 90.1753 141.349C89.9362 141.302 89.6977 141.252 89.4598 141.2C89.1231 141.12 88.7876 141.035 88.4532 140.945C88.1188 140.855 87.7858 140.761 87.4542 140.661C87.1225 140.562 86.7924 140.458 86.4637 140.349C86.1352 140.241 85.8081 140.127 85.4827 140.009C85.1573 139.891 84.8337 139.768 84.5118 139.641C84.1899 139.513 83.87 139.381 83.5518 139.245C83.2339 139.108 82.9176 138.967 82.6036 138.821C82.2895 138.676 81.9776 138.526 81.6678 138.371C81.3581 138.216 81.0507 138.057 80.7455 137.894C80.4403 137.731 80.1375 137.563 79.8371 137.391C79.5367 137.219 79.2388 137.043 78.9435 136.862C78.6481 136.682 78.3554 136.497 78.0654 136.308C77.7753 136.119 77.488 135.926 77.2035 135.728C76.919 135.531 76.6373 135.33 76.3585 135.125C76.0798 134.919 75.804 134.71 75.5312 134.497C75.2586 134.284 74.989 134.067 74.7224 133.846C74.4559 133.625 74.1925 133.4 73.9324 133.172C73.6722 132.943 73.4155 132.711 73.1621 132.475C72.9085 132.24 72.6585 132 72.4119 131.757C72.1653 131.514 71.9222 131.268 71.6828 131.018C71.4432 130.768 71.2073 130.515 70.9749 130.258C70.7427 130.001 70.5141 129.741 70.2892 129.478C70.0645 129.215 69.8435 128.949 69.6263 128.679C69.4091 128.409 69.1958 128.137 68.9863 127.861C68.7769 127.586 68.5715 127.307 68.3701 127.025C68.1688 126.744 67.9715 126.459 67.7781 126.172C67.5849 125.885 67.3958 125.595 67.2109 125.302C67.0259 125.01 66.8451 124.715 66.6687 124.417C66.4921 124.119 66.3199 123.819 66.1521 123.516C65.9841 123.213 65.8206 122.908 65.6615 122.601C65.5024 122.293 65.3476 121.984 65.1972 121.672C65.047 121.36 64.9012 121.046 64.7599 120.73C61.23 112.73 60.29 104.56 63.05 95.9099C66.7599 84.34 74.1699 76.4499 85.4598 72.0999C85.5212 72.0775 85.5831 72.0564 85.6452 72.0367C85.7077 72.017 85.7704 71.9986 85.8333 71.9814C85.8964 71.9643 85.9596 71.9486 86.0233 71.9343C86.087 71.92 86.151 71.907 86.2153 71.8952C86.2796 71.8837 86.344 71.8735 86.4087 71.8646C86.4735 71.8557 86.5383 71.8483 86.6034 71.8421C86.6684 71.8361 86.7335 71.8315 86.7987 71.8281C86.8639 71.8248 86.9292 71.8229 86.9944 71.8224C87.0598 71.8219 87.1251 71.8227 87.1903 71.8249C87.2555 71.8273 87.3208 71.831 87.3858 71.8361C87.451 71.8411 87.5161 71.8476 87.5807 71.8554C87.6456 71.8632 87.7102 71.8725 87.7747 71.8831C87.8391 71.8937 87.9034 71.9057 87.9673 71.9191C88.0313 71.9324 88.0948 71.9471 88.1581 71.9632C88.2214 71.9792 88.2844 71.9967 88.3469 72.0156C88.4094 72.0343 88.4715 72.0544 88.5333 72.0757C88.595 72.0972 88.6563 72.12 88.7169 72.1441C88.7776 72.168 88.8378 72.1934 88.8973 72.2201C88.9571 72.2466 89.0161 72.2745 89.0745 72.3036C89.1331 72.3328 89.1909 72.3632 89.2479 72.3949C89.3051 72.4264 89.3616 72.4592 89.4173 72.4933C89.4731 72.5273 89.528 72.5625 89.5821 72.599C89.6364 72.6353 89.6899 72.6728 89.7424 72.7115C89.7952 72.7501 89.8469 72.7899 89.8977 72.8308C89.9487 72.8717 89.9987 72.9137 90.0479 72.9568C90.0971 72.9997 90.1452 73.0438 90.1924 73.0888C90.2397 73.134 90.286 73.1801 90.3313 73.2271C90.3766 73.2741 90.4208 73.3221 90.4639 73.371C90.5073 73.42 90.5495 73.4699 90.5905 73.5206C90.6315 73.5714 90.6715 73.6231 90.7104 73.6755C90.7493 73.728 90.787 73.7813 90.8235 73.8355C90.8602 73.8895 90.8958 73.9444 90.9299 73.9999C90.968 74.0566 91.0048 74.1142 91.0399 74.1728C91.0753 74.2312 91.109 74.2906 91.1413 74.3507C91.1737 74.4109 91.2046 74.4718 91.2337 74.5335C91.263 74.5952 91.2909 74.6577 91.3171 74.7208C91.3432 74.7839 91.3678 74.8475 91.3909 74.9118C91.4139 74.9762 91.4354 75.041 91.4551 75.1064C91.4751 75.1718 91.4932 75.2376 91.5096 75.3038C91.5262 75.3701 91.5411 75.4368 91.5544 75.5038C91.5676 75.5709 91.5794 75.6382 91.5891 75.7058C91.5991 75.7734 91.6073 75.8411 91.6137 75.9091C91.6204 75.9771 91.6253 76.0452 91.6284 76.1134C91.6315 76.1816 91.6331 76.2499 91.6329 76.3183C91.6327 76.3867 91.6307 76.4549 91.627 76.523C91.6235 76.5912 91.6182 76.6593 91.6112 76.7273C91.6042 76.7952 91.5956 76.863 91.585 76.9306C91.5749 76.9981 91.5628 77.0652 91.5491 77.1322C91.5354 77.1991 91.5202 77.2656 91.503 77.3318C91.4862 77.398 91.4674 77.4638 91.4471 77.529C91.427 77.5943 91.4051 77.6589 91.3817 77.723C91.3583 77.7872 91.3331 77.8507 91.3065 77.9136C91.2799 77.9766 91.2518 78.0389 91.2221 78.1003C91.1924 78.1618 91.1612 78.2225 91.1284 78.2826C91.0958 78.3426 91.0616 78.4017 91.0258 78.4599C90.9903 78.5182 90.9532 78.5756 90.9147 78.632C90.8762 78.6884 90.8364 78.7438 90.795 78.7984C90.754 78.8528 90.7114 78.9062 90.6674 78.9585C90.6235 79.0109 90.5784 79.0621 90.5319 79.1122C90.4854 79.1622 90.4378 79.2111 90.3889 79.2589C90.3401 79.3067 90.2901 79.3532 90.2389 79.3984C90.1878 79.4437 90.1356 79.4876 90.0821 79.5302C90.0288 79.5729 89.9745 79.6143 89.919 79.6542C89.8635 79.6942 89.8073 79.7327 89.7499 79.7699C88.1522 80.7443 86.5055 81.6277 84.8098 82.4199C78.58 85.5899 74.7 90.7698 72.23 97.2399C67.4 109.82 74.0499 124.41 85.0499 130.12C95.1598 135.41 108.99 133.29 116.46 124.59C116.596 124.434 116.73 124.276 116.862 124.116C116.994 123.956 117.123 123.794 117.25 123.63C117.377 123.466 117.501 123.301 117.623 123.133C117.744 122.966 117.864 122.796 117.981 122.625C118.097 122.454 118.212 122.281 118.323 122.107C118.435 121.932 118.544 121.756 118.65 121.578C118.756 121.4 118.86 121.221 118.961 121.04C119.062 120.859 119.16 120.677 119.256 120.493C119.351 120.309 119.444 120.124 119.534 119.937C119.624 119.75 119.711 119.562 119.795 119.373C119.88 119.184 119.961 118.993 120.04 118.802C120.118 118.61 120.194 118.417 120.267 118.223C120.34 118.029 120.41 117.834 120.477 117.638C120.544 117.442 120.608 117.245 120.669 117.047C120.73 116.849 120.788 116.65 120.843 116.451C120.898 116.251 120.95 116.05 121 115.849C121.049 115.648 121.095 115.446 121.138 115.243C121.181 115.041 121.221 114.837 121.258 114.633C121.295 114.43 121.329 114.225 121.36 114.02C121.391 113.816 121.419 113.61 121.444 113.405C121.468 113.199 121.49 112.993 121.509 112.787C121.527 112.58 121.543 112.374 121.555 112.167C121.568 111.96 121.577 111.753 121.583 111.546C121.589 111.339 121.592 111.132 121.592 110.924C121.592 110.717 121.589 110.51 121.583 110.303C121.577 110.096 121.568 109.889 121.555 109.682C121.543 109.476 121.527 109.269 121.509 109.063C121.49 108.856 121.468 108.65 121.444 108.444C121.419 108.239 121.391 108.033 121.36 107.829C121.329 107.624 121.296 107.419 121.258 107.216C121.221 107.012 121.181 106.808 121.138 106.606C121.095 106.403 121.049 106.201 121 106C120 101 114.26 94.4198 110.51 93.53ZM100.08 94.6999C100.075 94.6794 100.07 94.6589 100.065 94.6386C100.059 94.6183 100.053 94.5981 100.047 94.578C100.04 94.5581 100.033 94.5384 100.025 94.5186C100.017 94.4991 100.009 94.4796 100 94.4604C99.9919 94.4413 99.9827 94.4224 99.9729 94.4036C99.9633 94.3849 99.9532 94.3665 99.9424 94.3483C99.9319 94.3302 99.9208 94.3122 99.909 94.2946C99.8975 94.277 99.8854 94.2599 99.8729 94.2429C99.8604 94.2261 99.8473 94.2095 99.834 94.1931C99.8208 94.1768 99.8069 94.161 99.7926 94.1454C99.7784 94.1298 99.7637 94.1147 99.7487 94.0999C99.7339 94.0851 99.7184 94.0708 99.7024 94.0567C99.6868 94.0429 99.6706 94.0294 99.6542 94.0161C99.6378 94.0032 99.6208 93.9905 99.6036 93.9782C99.5864 93.9661 99.569 93.9542 99.5512 93.9429C99.5335 93.9315 99.5153 93.9208 99.4969 93.9104C99.4786 93.9001 99.46 93.8901 99.4413 93.8808C99.4225 93.8714 99.4034 93.8626 99.3839 93.8542C99.3647 93.846 99.3452 93.8382 99.3253 93.8307C99.3055 93.8233 99.2856 93.8165 99.2655 93.8102C99.2454 93.804 99.2251 93.7983 99.2048 93.7931C99.1844 93.788 99.1637 93.7833 99.143 93.779C99.1225 93.7749 99.1018 93.7714 99.0809 93.7682C99.06 93.7651 99.0391 93.7626 99.018 93.7606C98.9971 93.7587 98.9762 93.7573 98.9551 93.7565C98.9341 93.7558 98.913 93.7556 98.8919 93.7558C98.8708 93.7561 98.8499 93.7569 98.8288 93.7581C98.8079 93.7597 98.787 93.7616 98.7659 93.764C98.745 93.7665 98.7241 93.7696 98.7034 93.7731C98.6827 93.7767 98.662 93.7808 98.6415 93.7854C98.621 93.7901 98.6005 93.7954 98.5801 93.8011C98.56 93.8069 98.5399 93.8132 98.5198 93.8198C92.0198 96.0599 89.2399 103.05 92.2799 108.75C92.3151 108.813 92.3512 108.875 92.3887 108.937C92.4262 108.999 92.4651 109.059 92.5049 109.119C92.5448 109.18 92.586 109.239 92.6282 109.297C92.6706 109.356 92.7139 109.413 92.7585 109.47C92.803 109.527 92.8487 109.583 92.8954 109.637C92.9423 109.692 92.9899 109.746 93.0387 109.799C93.0878 109.852 93.1378 109.904 93.1885 109.955C93.2395 110.007 93.2915 110.057 93.3444 110.105C93.3973 110.155 93.4512 110.202 93.5059 110.249C93.5608 110.296 93.6165 110.342 93.6731 110.387C93.7298 110.431 93.7874 110.475 93.8456 110.517C93.9042 110.56 93.9633 110.601 94.0231 110.641C94.0833 110.681 94.144 110.72 94.2053 110.757C94.2671 110.795 94.3294 110.831 94.3923 110.866C94.4551 110.902 94.5188 110.936 94.5831 110.968C94.6475 111.001 94.7124 111.033 94.7778 111.063C94.8434 111.093 94.9096 111.122 94.9762 111.149C95.043 111.176 95.1102 111.203 95.1778 111.227C95.2456 111.252 95.3137 111.276 95.3823 111.298C95.451 111.32 95.52 111.341 95.5895 111.36C95.659 111.38 95.729 111.398 95.7991 111.414C95.8694 111.431 95.9397 111.446 96.0104 111.46C96.0813 111.474 96.1524 111.486 96.2235 111.497C96.295 111.508 96.3665 111.518 96.438 111.526C96.5096 111.534 96.5815 111.541 96.6534 111.546C96.7253 111.552 96.7973 111.556 96.8694 111.558C96.9415 111.561 97.0135 111.562 97.0856 111.561C97.1579 111.561 97.2299 111.559 97.3018 111.556C97.3741 111.553 97.446 111.549 97.5178 111.542C97.5897 111.536 97.6616 111.529 97.7331 111.52C97.8046 111.511 97.876 111.501 97.9471 111.489C98.0184 111.477 98.0893 111.464 98.1598 111.45C100.93 110.63 102.87 108.63 102.46 106.04C101.88 102.23 100.91 98.4599 100.08 94.6999Z"></path><path     fill="#C08EAF" fill-opacity="0.2" d="M110.51 93.53C110.495 93.5267 110.479 93.5237 110.464 93.5214C110.448 93.519 110.432 93.5173 110.417 93.5157C110.401 93.5145 110.386 93.5136 110.37 93.5132C110.354 93.5128 110.339 93.513 110.323 93.5134C110.307 93.5142 110.291 93.5151 110.276 93.5167C110.26 93.5182 110.245 93.5204 110.229 93.5228C110.214 93.5255 110.198 93.5284 110.183 93.5319C110.168 93.5354 110.153 93.5395 110.137 93.5438C110.123 93.5485 110.108 93.5534 110.093 93.5587C110.078 93.5641 110.064 93.57 110.049 93.5763C110.035 93.5827 110.021 93.5895 110.007 93.5966C109.993 93.604 109.979 93.6116 109.965 93.6196C109.952 93.6278 109.939 93.6362 109.926 93.645C109.913 93.654 109.9 93.6632 109.888 93.6729C109.876 93.6827 109.864 93.6927 109.852 93.703C109.84 93.7136 109.829 93.7245 109.818 93.7354C109.807 93.7468 109.796 93.7583 109.786 93.77C109.775 93.7819 109.765 93.794 109.756 93.8065C109.747 93.819 109.737 93.8317 109.728 93.8446C109.72 93.8577 109.711 93.871 109.703 93.8847C109.696 93.8983 109.688 93.912 109.681 93.9259C109.674 93.9399 109.667 93.9542 109.661 93.9686C109.655 93.9831 109.649 93.9977 109.644 94.0124C109.639 94.0272 109.634 94.0423 109.63 94.0573C109.625 94.0726 109.622 94.0878 109.618 94.103C109.615 94.1185 109.612 94.1339 109.61 94.1493C109.607 94.1649 109.606 94.1804 109.604 94.196C109.603 94.2116 109.602 94.2274 109.601 94.2431C109.601 94.2587 109.601 94.2745 109.602 94.2901C109.602 94.3058 109.603 94.3214 109.605 94.337C109.606 94.3526 109.608 94.3683 109.611 94.3837C109.614 94.3993 109.616 94.4147 109.62 94.43C110.24 97.3099 111.16 102.43 111.57 106.16C112.28 112.45 105.99 118.33 101.1 119.98C93.3999 122.63 84.5198 116.33 82.5198 108.98C80.2199 100.39 84.9899 89.9198 92.9299 86.5099C93.8098 86.0999 94.6899 85.7499 95.5799 85.3399C97.3999 84.5099 96.5198 83.1599 96.2198 81.9199C95.3999 78.5099 94.9299 75.0999 96.6899 71.9199C99.3399 67.1499 106.22 63.39 111.57 65.68C113.902 66.6028 116.158 67.6827 118.34 68.9199C118.395 68.9555 118.45 68.9923 118.504 69.03C118.558 69.0678 118.611 69.1066 118.663 69.1466C118.715 69.1866 118.767 69.2276 118.817 69.2695C118.868 69.3115 118.918 69.3546 118.967 69.3986C119.016 69.4425 119.064 69.4874 119.111 69.5333C119.158 69.5793 119.204 69.6262 119.25 69.674C119.295 69.7218 119.339 69.7704 119.382 69.8199C119.426 69.8695 119.468 69.9199 119.509 69.971C119.551 70.0223 119.591 70.0744 119.63 70.1273C119.669 70.1802 119.707 70.2338 119.744 70.2882C119.782 70.3425 119.818 70.3976 119.852 70.4535C119.887 70.5093 119.921 70.5658 119.953 70.623C119.986 70.6802 120.017 70.738 120.048 70.7964C120.078 70.8549 120.107 70.9139 120.135 70.9736C120.163 71.0332 120.19 71.0934 120.215 71.154C120.24 71.2147 120.265 71.2759 120.288 71.3374C120.311 71.3992 120.332 71.4613 120.353 71.5238C120.374 71.5863 120.393 71.6492 120.411 71.7124C120.429 71.7759 120.445 71.8395 120.461 71.9035C120.476 71.9674 120.49 72.0317 120.503 72.0962C120.516 72.1608 120.528 72.2256 120.538 72.2906C120.548 72.3555 120.557 72.4207 120.565 72.4861C120.573 72.5514 120.579 72.6169 120.584 72.6826C120.589 72.7482 120.592 72.8139 120.595 72.8796C120.597 72.9454 120.598 73.0112 120.598 73.0771C120.598 73.1428 120.596 73.2086 120.593 73.2744C120.59 73.3401 120.586 73.4057 120.581 73.4712C120.575 73.5368 120.568 73.6023 120.56 73.6677C120.552 73.7329 120.543 73.7981 120.532 73.863C120.521 73.9279 120.509 73.9925 120.496 74.057C120.482 74.1214 120.467 74.1855 120.451 74.2494C120.436 74.3133 120.418 74.3768 120.4 74.44C119.28 77.44 116.34 78.1499 113.22 76.33C112.116 75.6251 110.98 74.9784 109.81 74.39C109.748 74.357 109.685 74.3262 109.621 74.2976C109.557 74.2689 109.492 74.2424 109.427 74.2179C109.361 74.1936 109.294 74.1714 109.227 74.1515C109.16 74.1315 109.092 74.1137 109.024 74.0982C108.956 74.0827 108.887 74.0695 108.817 74.0585C108.748 74.0477 108.679 74.0391 108.609 74.0327C108.539 74.0265 108.469 74.0225 108.399 74.0208C108.329 74.0191 108.259 74.0198 108.189 74.0228C108.119 74.0258 108.049 74.0311 107.979 74.0386C107.91 74.0463 107.84 74.0562 107.771 74.0683C107.702 74.0805 107.634 74.0951 107.566 74.1118C107.498 74.1285 107.43 74.1475 107.363 74.1689C107.297 74.1901 107.231 74.2135 107.165 74.239C107.1 74.2646 107.036 74.2924 106.972 74.3222C106.909 74.3521 106.847 74.3841 106.785 74.4181C106.724 74.4521 106.664 74.4881 106.605 74.5261C106.546 74.5641 106.489 74.604 106.432 74.6458C106.376 74.6876 106.321 74.7312 106.268 74.7767C106.215 74.8223 106.163 74.8695 106.112 74.9183C106.062 74.9673 106.014 75.0178 105.967 75.0699C105.92 75.1219 105.875 75.1755 105.832 75.2306C105.788 75.2857 105.747 75.3422 105.707 75.4001C105.668 75.4579 105.63 75.517 105.594 75.5773C105.559 75.6377 105.525 75.6992 105.493 75.7618C105.462 75.8243 105.432 75.8879 105.405 75.9525C105.378 76.0169 105.352 76.0823 105.329 76.1486C105.307 76.2147 105.286 76.2816 105.267 76.3492C105.249 76.4167 105.232 76.4849 105.218 76.5536C105.204 76.6223 105.192 76.6913 105.183 76.7607C105.173 76.8302 105.166 76.8999 105.161 76.9699C105.157 77.0398 105.154 77.1098 105.154 77.1798C105.153 77.2499 105.156 77.3199 105.16 77.39C105.216 78.571 105.342 79.7443 105.54 80.9099C105.547 80.9527 105.555 80.9954 105.563 81.0378C105.572 81.0804 105.581 81.1228 105.591 81.165C105.601 81.2072 105.612 81.2492 105.624 81.291C105.635 81.3327 105.648 81.3743 105.661 81.4156C105.674 81.457 105.688 81.4981 105.702 81.539C105.717 81.5798 105.732 81.6203 105.748 81.6607C105.764 81.7009 105.781 81.7409 105.798 81.7806C105.816 81.8203 105.834 81.8597 105.853 81.8988C105.872 81.9378 105.891 81.9765 105.911 82.0148C105.932 82.0532 105.953 82.0911 105.974 82.1286C105.996 82.1663 106.018 82.2034 106.041 82.2402C106.064 82.277 106.088 82.3134 106.112 82.3493C106.136 82.3852 106.161 82.4206 106.187 82.4556C106.212 82.4906 106.239 82.5252 106.265 82.5593C106.292 82.5934 106.32 82.627 106.348 82.6601C106.376 82.6932 106.404 82.7257 106.433 82.7577C106.463 82.7899 106.492 82.8215 106.523 82.8525C106.553 82.8835 106.584 82.9139 106.615 82.9437C106.647 82.9736 106.679 83.0029 106.711 83.0316C106.744 83.0604 106.777 83.0885 106.81 83.116C106.844 83.1436 106.878 83.1705 106.912 83.1968C106.947 83.2231 106.982 83.2488 107.017 83.2738C107.053 83.2989 107.088 83.3233 107.124 83.347C107.161 83.3708 107.198 83.3939 107.235 83.4163C107.272 83.4387 107.309 83.4605 107.347 83.4816C107.385 83.5027 107.423 83.5231 107.462 83.5429C107.5 83.5626 107.54 83.5816 107.579 83.5999C107.618 83.6182 107.658 83.6357 107.698 83.6527C107.738 83.6695 107.778 83.6856 107.818 83.7011C107.859 83.7165 107.9 83.7312 107.941 83.7452C107.982 83.7592 108.023 83.7723 108.065 83.7847C108.106 83.7972 108.148 83.8089 108.19 83.8199C110.148 84.2528 112.061 84.8329 113.93 85.5599C121.51 88.9099 126.93 94.38 129.46 102.56C134.16 117.73 125.34 132.85 112.28 138.62C112.06 138.724 111.838 138.826 111.616 138.925C111.394 139.025 111.17 139.122 110.946 139.217C110.722 139.312 110.496 139.405 110.27 139.495C110.044 139.585 109.817 139.673 109.589 139.759C109.361 139.845 109.132 139.928 108.902 140.009C108.672 140.09 108.442 140.168 108.21 140.244C107.979 140.321 107.747 140.394 107.514 140.466C107.281 140.537 107.048 140.606 106.813 140.673C106.579 140.74 106.344 140.804 106.108 140.866C105.873 140.927 105.636 140.987 105.399 141.044C105.163 141.101 104.925 141.155 104.687 141.207C104.449 141.259 104.211 141.309 103.972 141.356C103.733 141.403 103.493 141.448 103.253 141.49C103.014 141.532 102.773 141.572 102.532 141.609C102.292 141.647 102.051 141.682 101.809 141.714C101.568 141.746 101.326 141.776 101.084 141.803C100.842 141.831 100.599 141.856 100.357 141.878C100.115 141.9 99.8717 141.92 99.6286 141.938C99.3856 141.955 99.1426 141.97 98.8993 141.982C98.6561 141.995 98.4128 142.005 98.1692 142.012C97.9258 142.019 97.6823 142.024 97.4385 142.027C97.195 142.029 96.9514 142.029 96.7077 142.026C96.4643 142.024 96.2208 142.019 95.9772 142.011C95.7339 142.003 95.4905 141.993 95.2471 141.981C95.0038 141.968 94.7606 141.953 94.5176 141.935C94.2747 141.918 94.0321 141.898 93.7895 141.875C93.5469 141.852 93.3047 141.827 93.0626 141.799C92.8206 141.772 92.5788 141.742 92.3374 141.709C92.096 141.677 91.8549 141.642 91.6143 141.604C91.3737 141.567 91.1333 141.527 90.8934 141.484C90.6536 141.442 90.4143 141.397 90.1753 141.349C89.9362 141.302 89.6977 141.252 89.4598 141.2C89.1231 141.12 88.7876 141.035 88.4532 140.945C88.1188 140.855 87.7858 140.761 87.4542 140.661C87.1225 140.562 86.7924 140.458 86.4637 140.349C86.1352 140.241 85.8081 140.127 85.4827 140.009C85.1573 139.891 84.8337 139.768 84.5118 139.641C84.1899 139.513 83.87 139.381 83.5518 139.245C83.2339 139.108 82.9176 138.967 82.6036 138.821C82.2895 138.676 81.9776 138.526 81.6678 138.371C81.3581 138.216 81.0507 138.057 80.7455 137.894C80.4403 137.731 80.1375 137.563 79.8371 137.391C79.5367 137.219 79.2388 137.043 78.9435 136.862C78.6481 136.682 78.3554 136.497 78.0654 136.308C77.7753 136.119 77.488 135.926 77.2035 135.728C76.919 135.531 76.6373 135.33 76.3585 135.125C76.0798 134.919 75.804 134.71 75.5312 134.497C75.2586 134.284 74.989 134.067 74.7224 133.846C74.4559 133.625 74.1925 133.4 73.9324 133.172C73.6722 132.943 73.4155 132.711 73.1621 132.475C72.9085 132.24 72.6585 132 72.4119 131.757C72.1653 131.514 71.9222 131.268 71.6828 131.018C71.4432 130.768 71.2073 130.515 70.9749 130.258C70.7427 130.001 70.5141 129.741 70.2892 129.478C70.0645 129.215 69.8435 128.949 69.6263 128.679C69.4091 128.409 69.1958 128.137 68.9863 127.861C68.7769 127.586 68.5715 127.307 68.3701 127.025C68.1688 126.744 67.9715 126.459 67.7781 126.172C67.5849 125.885 67.3958 125.595 67.2109 125.302C67.0259 125.01 66.8451 124.715 66.6687 124.417C66.4921 124.119 66.3199 123.819 66.1521 123.516C65.9841 123.213 65.8206 122.908 65.6615 122.601C65.5024 122.293 65.3476 121.984 65.1972 121.672C65.047 121.36 64.9012 121.046 64.7599 120.73C61.23 112.73 60.29 104.56 63.05 95.9099C66.7599 84.34 74.1699 76.4499 85.4598 72.0999C85.5212 72.0775 85.5831 72.0564 85.6452 72.0367C85.7077 72.017 85.7704 71.9986 85.8333 71.9814C85.8964 71.9643 85.9596 71.9486 86.0233 71.9343C86.087 71.92 86.151 71.907 86.2153 71.8952C86.2796 71.8837 86.344 71.8735 86.4087 71.8646C86.4735 71.8557 86.5383 71.8483 86.6034 71.8421C86.6684 71.8361 86.7335 71.8315 86.7987 71.8281C86.8639 71.8248 86.9292 71.8229 86.9944 71.8224C87.0598 71.8219 87.1251 71.8227 87.1903 71.8249C87.2555 71.8273 87.3208 71.831 87.3858 71.8361C87.451 71.8411 87.5161 71.8476 87.5807 71.8554C87.6456 71.8632 87.7102 71.8725 87.7747 71.8831C87.8391 71.8937 87.9034 71.9057 87.9673 71.9191C88.0313 71.9324 88.0948 71.9471 88.1581 71.9632C88.2214 71.9792 88.2844 71.9967 88.3469 72.0156C88.4094 72.0343 88.4715 72.0544 88.5333 72.0757C88.595 72.0972 88.6563 72.12 88.7169 72.1441C88.7776 72.168 88.8378 72.1934 88.8973 72.2201C88.9571 72.2466 89.0161 72.2745 89.0745 72.3036C89.1331 72.3328 89.1909 72.3632 89.2479 72.3949C89.3051 72.4264 89.3616 72.4592 89.4173 72.4933C89.4731 72.5273 89.528 72.5625 89.5821 72.599C89.6364 72.6353 89.6899 72.6728 89.7424 72.7115C89.7952 72.7501 89.8469 72.7899 89.8977 72.8308C89.9487 72.8717 89.9987 72.9137 90.0479 72.9568C90.0971 72.9997 90.1452 73.0438 90.1924 73.0888C90.2397 73.134 90.286 73.1801 90.3313 73.2271C90.3766 73.2741 90.4208 73.3221 90.4639 73.371C90.5073 73.42 90.5495 73.4699 90.5905 73.5206C90.6315 73.5714 90.6715 73.6231 90.7104 73.6755C90.7493 73.728 90.787 73.7813 90.8235 73.8355C90.8602 73.8895 90.8958 73.9444 90.9299 73.9999C90.968 74.0566 91.0048 74.1142 91.0399 74.1728C91.0753 74.2312 91.109 74.2906 91.1413 74.3507C91.1737 74.4109 91.2046 74.4718 91.2337 74.5335C91.263 74.5952 91.2909 74.6577 91.3171 74.7208C91.3432 74.7839 91.3678 74.8475 91.3909 74.9118C91.4139 74.9762 91.4354 75.041 91.4551 75.1064C91.4751 75.1718 91.4932 75.2376 91.5096 75.3038C91.5262 75.3701 91.5411 75.4368 91.5544 75.5038C91.5676 75.5709 91.5794 75.6382 91.5891 75.7058C91.5991 75.7734 91.6073 75.8411 91.6137 75.9091C91.6204 75.9771 91.6253 76.0452 91.6284 76.1134C91.6315 76.1816 91.6331 76.2499 91.6329 76.3183C91.6327 76.3867 91.6307 76.4549 91.627 76.523C91.6235 76.5912 91.6182 76.6593 91.6112 76.7273C91.6042 76.7952 91.5956 76.863 91.585 76.9306C91.5749 76.9981 91.5628 77.0652 91.5491 77.1322C91.5354 77.1991 91.5202 77.2656 91.503 77.3318C91.4862 77.398 91.4674 77.4638 91.4471 77.529C91.427 77.5943 91.4051 77.6589 91.3817 77.723C91.3583 77.7872 91.3331 77.8507 91.3065 77.9136C91.2799 77.9766 91.2518 78.0389 91.2221 78.1003C91.1924 78.1618 91.1612 78.2225 91.1284 78.2826C91.0958 78.3426 91.0616 78.4017 91.0258 78.4599C90.9903 78.5182 90.9532 78.5756 90.9147 78.632C90.8762 78.6884 90.8364 78.7438 90.795 78.7984C90.754 78.8528 90.7114 78.9062 90.6674 78.9585C90.6235 79.0109 90.5784 79.0621 90.5319 79.1122C90.4854 79.1622 90.4378 79.2111 90.3889 79.2589C90.3401 79.3067 90.2901 79.3532 90.2389 79.3984C90.1878 79.4437 90.1356 79.4876 90.0821 79.5302C90.0288 79.5729 89.9745 79.6143 89.919 79.6542C89.8635 79.6942 89.8073 79.7327 89.7499 79.7699C88.1522 80.7443 86.5055 81.6277 84.8098 82.4199C78.58 85.5899 74.7 90.7698 72.23 97.2399C67.4 109.82 74.0499 124.41 85.0499 130.12C95.1598 135.41 108.99 133.29 116.46 124.59C116.596 124.434 116.73 124.276 116.862 124.116C116.994 123.956 117.123 123.794 117.25 123.63C117.377 123.466 117.501 123.301 117.623 123.133C117.744 122.966 117.864 122.796 117.981 122.625C118.097 122.454 118.212 122.281 118.323 122.107C118.435 121.932 118.544 121.756 118.65 121.578C118.756 121.4 118.86 121.221 118.961 121.04C119.062 120.859 119.16 120.677 119.256 120.493C119.351 120.309 119.444 120.124 119.534 119.937C119.624 119.75 119.711 119.562 119.795 119.373C119.88 119.184 119.961 118.993 120.04 118.802C120.118 118.61 120.194 118.417 120.267 118.223C120.34 118.029 120.41 117.834 120.477 117.638C120.544 117.442 120.608 117.245 120.669 117.047C120.73 116.849 120.788 116.65 120.843 116.451C120.898 116.251 120.95 116.05 121 115.849C121.049 115.648 121.095 115.446 121.138 115.243C121.181 115.041 121.221 114.837 121.258 114.633C121.295 114.43 121.329 114.225 121.36 114.02C121.391 113.816 121.419 113.61 121.444 113.405C121.468 113.199 121.49 112.993 121.509 112.787C121.527 112.58 121.543 112.374 121.555 112.167C121.568 111.96 121.577 111.753 121.583 111.546C121.589 111.339 121.592 111.132 121.592 110.924C121.592 110.717 121.589 110.51 121.583 110.303C121.577 110.096 121.568 109.889 121.555 109.682C121.543 109.476 121.527 109.269 121.509 109.063C121.49 108.856 121.468 108.65 121.444 108.444C121.419 108.239 121.391 108.033 121.36 107.829C121.329 107.624 121.296 107.419 121.258 107.216C121.221 107.012 121.181 106.808 121.138 106.606C121.095 106.403 121.049 106.201 121 106C120 101 114.26 94.4198 110.51 93.53ZM100.08 94.6999C100.075 94.6794 100.07 94.6589 100.065 94.6386C100.059 94.6183 100.053 94.5981 100.047 94.578C100.04 94.5581 100.033 94.5384 100.025 94.5186C100.017 94.4991 100.009 94.4796 100 94.4604C99.9919 94.4413 99.9827 94.4224 99.9729 94.4036C99.9633 94.3849 99.9532 94.3665 99.9424 94.3483C99.9319 94.3302 99.9208 94.3122 99.909 94.2946C99.8975 94.277 99.8854 94.2599 99.8729 94.2429C99.8604 94.2261 99.8473 94.2095 99.834 94.1931C99.8208 94.1768 99.8069 94.161 99.7926 94.1454C99.7784 94.1298 99.7637 94.1147 99.7487 94.0999C99.7339 94.0851 99.7184 94.0708 99.7024 94.0567C99.6868 94.0429 99.6706 94.0294 99.6542 94.0161C99.6378 94.0032 99.6208 93.9905 99.6036 93.9782C99.5864 93.9661 99.569 93.9542 99.5512 93.9429C99.5335 93.9315 99.5153 93.9208 99.4969 93.9104C99.4786 93.9001 99.46 93.8901 99.4413 93.8808C99.4225 93.8714 99.4034 93.8626 99.3839 93.8542C99.3647 93.846 99.3452 93.8382 99.3253 93.8307C99.3055 93.8233 99.2856 93.8165 99.2655 93.8102C99.2454 93.804 99.2251 93.7983 99.2048 93.7931C99.1844 93.788 99.1637 93.7833 99.143 93.779C99.1225 93.7749 99.1018 93.7714 99.0809 93.7682C99.06 93.7651 99.0391 93.7626 99.018 93.7606C98.9971 93.7587 98.9762 93.7573 98.9551 93.7565C98.9341 93.7558 98.913 93.7556 98.8919 93.7558C98.8708 93.7561 98.8499 93.7569 98.8288 93.7581C98.8079 93.7597 98.787 93.7616 98.7659 93.764C98.745 93.7665 98.7241 93.7696 98.7034 93.7731C98.6827 93.7767 98.662 93.7808 98.6415 93.7854C98.621 93.7901 98.6005 93.7954 98.5801 93.8011C98.56 93.8069 98.5399 93.8132 98.5198 93.8198C92.0198 96.0599 89.2399 103.05 92.2799 108.75C92.3151 108.813 92.3512 108.875 92.3887 108.937C92.4262 108.999 92.4651 109.059 92.5049 109.119C92.5448 109.18 92.586 109.239 92.6282 109.297C92.6706 109.356 92.7139 109.413 92.7585 109.47C92.803 109.527 92.8487 109.583 92.8954 109.637C92.9423 109.692 92.9899 109.746 93.0387 109.799C93.0878 109.852 93.1378 109.904 93.1885 109.955C93.2395 110.007 93.2915 110.057 93.3444 110.105C93.3973 110.155 93.4512 110.202 93.5059 110.249C93.5608 110.296 93.6165 110.342 93.6731 110.387C93.7298 110.431 93.7874 110.475 93.8456 110.517C93.9042 110.56 93.9633 110.601 94.0231 110.641C94.0833 110.681 94.144 110.72 94.2053 110.757C94.2671 110.795 94.3294 110.831 94.3923 110.866C94.4551 110.902 94.5188 110.936 94.5831 110.968C94.6475 111.001 94.7124 111.033 94.7778 111.063C94.8434 111.093 94.9096 111.122 94.9762 111.149C95.043 111.176 95.1102 111.203 95.1778 111.227C95.2456 111.252 95.3137 111.276 95.3823 111.298C95.451 111.32 95.52 111.341 95.5895 111.36C95.659 111.38 95.729 111.398 95.7991 111.414C95.8694 111.431 95.9397 111.446 96.0104 111.46C96.0813 111.474 96.1524 111.486 96.2235 111.497C96.295 111.508 96.3665 111.518 96.438 111.526C96.5096 111.534 96.5815 111.541 96.6534 111.546C96.7253 111.552 96.7973 111.556 96.8694 111.558C96.9415 111.561 97.0135 111.562 97.0856 111.561C97.1579 111.561 97.2299 111.559 97.3018 111.556C97.3741 111.553 97.446 111.549 97.5178 111.542C97.5897 111.536 97.6616 111.529 97.7331 111.52C97.8046 111.511 97.876 111.501 97.9471 111.489C98.0184 111.477 98.0893 111.464 98.1598 111.45C100.93 110.63 102.87 108.63 102.46 106.04C101.88 102.23 100.91 98.4599 100.08 94.6999Z"></path><g ><g filter="url(#filter_0_12)"><path     fill="#FFFFFF"  d="M123.238 96.6523Q121.754 95.9844 121.086 94.5L121.012 94.2773L120.789 92.5703L120.863 92.4219Q121.012 88.7109 121.902 85.1484Q122.793 81.6602 123.832 78.3945L123.98 78.0234L124.277 77.7266Q125.465 76.8359 127.172 77.0586L127.395 77.0586L127.543 77.1328Q129.027 77.8008 129.695 79.2852L129.844 79.5078L129.844 81.7344L129.77 81.8828Q129.027 85.1484 128.359 88.5625Q127.691 92.0508 126.949 95.3164L126.875 95.7617L126.504 96.0586Q125.316 96.9492 123.609 96.7266L123.387 96.7266L123.238 96.6523ZM74.2539 98.5078Q72.6211 98.2852 70.6914 98.2852Q68.2422 98.4336 66.3125 97.3203L66.0898 97.2461L65.8672 97.0234Q64.9766 95.8359 65.1992 94.1289L65.1992 93.9062L65.2734 93.7578Q65.8672 92.2734 67.5 91.457L67.7969 91.3828L72.25 91.3828L72.3984 91.3828Q74.2539 91.7539 76.332 91.6797Q79.0039 91.457 81.082 92.4961L81.3047 92.6445Q81.3047 92.6445 81.3047 92.6445Q81.3789 92.5703 81.3789 92.4961Q82.7148 89.8984 83.9023 87.375Q82.4922 87.8203 81.082 88.1914Q78.4102 88.8594 75.3672 88.8594L75.293 88.8594Q72.1758 88.7109 70.2461 86.3359L70.1719 86.3359L70.0977 86.2617Q68.6875 84.1094 68.9102 81.3633L68.9102 81.2891L68.9102 81.1406Q69.7266 77.3555 71.9531 74.1641Q74.1055 71.1211 76.9258 68.375Q78.1875 67.0391 80.3398 67.2617L80.4883 67.2617L80.7109 67.3359Q82.1953 68.0039 82.8633 69.4883L82.9375 69.7109L82.9375 71.7148L82.6406 72.0859Q80.2656 74.6836 78.1875 77.3555Q76.5547 79.3594 75.9609 81.957Q76.2578 82.0312 76.7031 82.0312Q80.1914 81.2148 83.5312 80.1016Q87.0195 78.9883 90.8047 78.3945L91.1758 78.3203L91.5469 78.4688Q93.0312 79.1367 93.6992 80.6211L93.7734 80.8438L93.7734 82.625L93.6992 82.8477Q91.6211 87.8203 89.1719 92.7188Q86.7969 97.3203 85.0898 102.07L85.3867 103.777L85.2383 104.148Q84.5703 105.633 83.0859 106.301Q82.5664 106.523 81.8613 108.268Q81.1562 110.012 80.4883 112.201Q79.8203 114.391 79.6719 114.762Q77.8164 119.215 76.1094 123.891L75.9609 124.484L73.2148 125.449L70.8398 124.336L70.6914 124.113Q69.5781 122.852 69.8008 120.848L69.8008 120.699L69.875 120.477Q71.5078 116.617 72.9922 112.758Q74.1055 109.789 75.2188 106.895Q73.2891 107.34 71.4336 107.711Q69.207 108.156 66.7578 108.453L66.3867 108.527L64.1602 107.34L63.9375 107.117Q63.0469 105.93 63.2695 104.223L63.2695 104L63.3438 103.852Q64.0117 102.367 65.4961 101.699L65.7188 101.625L65.8672 101.625Q69.207 101.328 72.25 100.512Q75.0703 99.7695 78.3359 99.6953Q78.5586 99.0273 78.8555 98.4336L74.4023 98.582L74.2539 98.5078ZM96.8906 114.762Q95.4062 114.094 94.7383 112.609L94.6641 112.387L94.6641 110.383L94.6641 110.234Q96.1484 105.336 97.7812 100.363Q99.043 96.6523 100.379 92.9414Q98.5234 93.5352 96.668 93.9062L96.2227 93.9805L95.8516 93.832Q94.3672 93.1641 93.6992 91.6797L93.625 91.457L93.625 89.2305L95.4805 86.9297L103.57 84.9258Q104.609 82.4023 105.5 79.8047Q106.613 76.6875 108.691 73.9414L108.766 73.8672L108.914 73.7188Q110.102 72.8281 111.809 73.0508L112.031 73.0508L112.18 73.125Q113.664 73.793 114.332 75.2773L114.406 75.5L114.406 77.5039L114.258 77.875Q113.145 79.5078 112.328 81.4375Q111.957 82.4023 111.586 83.4414Q112.848 83.2188 114.109 83.2188Q116.113 83.1445 118.191 82.9961L118.488 82.9219L118.785 83.0703Q120.27 83.7383 120.938 85.2227L121.086 85.4453L121.086 87.1523L120.938 87.375Q120.344 89.082 118.637 89.8242L118.414 89.8984L118.191 89.8984Q115.52 90.0469 112.922 90.2695Q110.77 90.4922 108.766 90.9375L106.465 96.8008Q111.289 98.8789 116.113 101.105Q121.457 103.629 126.801 106.152L127.098 106.301L127.32 106.523Q128.211 107.711 127.988 109.418L127.988 109.641L127.914 109.789Q127.246 111.273 125.762 111.941L125.613 112.016L124.055 112.238L123.684 112.09Q118.488 109.863 113.219 107.414Q108.691 105.262 104.09 103.406Q103.348 105.633 102.68 107.785Q101.715 110.754 100.527 113.648L100.379 113.945L100.156 114.168Q98.9688 115.059 97.2617 114.836L97.0391 114.836L96.8906 114.762ZM89.6172 134.652Q87.3164 133.316 85.7578 131.09Q84.4219 129.012 83.2344 127.082L83.0859 126.859L82.8633 124.262L83.0117 123.965Q83.6797 122.48 85.1641 121.812L85.3867 121.664L87.3906 121.664L89.4688 123.594L89.543 123.816Q90.5078 125.969 92.1406 128.121L94.2188 130.348L94.2188 132.352L94.1445 132.574Q93.4766 134.059 91.9922 134.727L91.7695 134.875L89.9141 134.875L89.6172 134.652ZM125.613 138.289L123.312 137.102L123.164 136.805Q121.754 134.949 120.789 132.871Q120.344 131.98 119.973 130.941Q119.379 131.609 118.637 132.203Q117.078 133.539 115.297 134.652L115.223 134.727L115.074 134.727Q113.145 135.469 110.844 135.246L110.77 135.246Q108.023 134.875 106.242 132.723Q104.758 131.016 103.719 128.938Q102.531 126.711 102.531 124.188L102.531 123.965L102.605 123.742Q103.199 122.109 104.758 121.441L104.98 121.367L106.762 121.367L107.059 121.441Q108.691 122.332 109.359 124.039L109.359 124.113Q109.953 126.266 111.512 128.27Q111.734 128.418 112.105 128.418Q113.664 127.75 115.074 126.191Q116.559 124.336 117.523 122.332Q118.562 120.254 119.23 117.953L119.379 117.582L119.676 117.285Q120.863 116.395 122.57 116.617L122.719 116.617L122.867 116.691Q124.648 117.285 125.242 119.066L125.391 119.289L125.316 119.586Q125.094 123.891 126.281 127.527Q127.469 131.238 129.25 134.727L129.473 135.246L129.25 135.84Q128.582 137.324 127.098 137.992L126.949 138.066L125.613 138.289ZM72.3984 138.066Q70.0977 136.434 68.0195 134.281Q66.0156 132.129 64.3828 129.828L64.0859 129.531L64.0859 127.602L64.2344 127.379Q64.9023 125.895 66.3867 125.227L66.6094 125.078L68.7617 125.078L69.1328 125.523Q71.0625 127.453 73.1406 129.531Q75.0703 131.535 77.0742 133.316L77.4453 133.688L77.4453 135.766L77.3711 136.062Q76.6289 137.547 75.1445 138.141L74.9219 138.289L72.7695 138.289L72.3984 138.066Z"></path></g></g><defs><filter id="filter_0_12" x="59.046875" y="65.0390625" width="74.796875" height="79.25" filterUnits="userSpaceOnUse" color-interpolation-filters="sRGB"><feFlood flood-opacity="0" result="feFloodId_0_12"/><feColorMatrix in="SourceAlpha" type="matrix" values="0 0 0 0 0 0 0 0 0 0 0 0 0 0 0 0 0 0 127 0" result="hardAlpha_0_12"/><feOffset dx="0" dy="2"/><feGaussianBlur stdDeviation="2"/><feComposite in2="hardAlpha_0_12" operator="out"/><feColorMatrix type="matrix" values="0 0 0 0 0 0 0 0 0 0 0 0 0 0 0 0 0 0 0.25 0"/><feBlend mode="normal" in2="feFloodId_0_12" result="dropShadow_1_0_12"/><feBlend mode="normal" in="SourceGraphic" in2="dropShadow_1_0_12" result="shape_0_12"/></filter></defs></svg>